M48
; DRILL file {KiCad (5.1.0-0)} date Wednesday, May 29, 2019 at 01:56:26 AM
; FORMAT={-:-/ absolute / inch / decimal}
; #@! TF.CreationDate,2019-05-29T01:56:26-04:00
; #@! TF.GenerationSoftware,Kicad,Pcbnew,(5.1.0-0)
; #@! TF.FileFunction,Plated,1,2,PTH
FMAT,2
INCH
T1C0.0118
T2C0.0354
T3C0.0394
%
G90
G05
T1
X4.8386Y-4.874
X4.8869Y-4.6389
X4.9082Y-4.5971
X4.9281Y-4.6585
X4.9565Y-4.8989
X4.9579Y-4.815
X4.9583Y-4.9553
X4.9626Y-4.987
X4.9645Y-4.927
X4.965Y-4.8693
X4.9859Y-4.5978
X5.0058Y-4.5504
X5.0251Y-4.6267
X5.0362Y-4.7004
X5.0571Y-5.0039
X5.0734Y-4.7263
X5.2177Y-4.5157
X5.2374Y-4.9803
X5.2883Y-4.6018
X5.3076Y-4.8095
X5.3401Y-3.5505
X5.3639Y-4.6922
X5.3713Y-4.5358
X5.4091Y-3.878
X5.4147Y-3.4126
X5.7162Y-3.4433
X5.7163Y-3.7522
X5.7359Y-3.1833
X5.9177Y-4.0169
X5.9539Y-4.0953
X6.0201Y-3.2895
X6.3114Y-4.5602
X6.7998Y-4.7026
X6.8083Y-4.7542
X6.8088Y-4.7842
X6.8175Y-4.6101
X6.8688Y-4.748
X6.8974Y-4.748
X6.9033Y-4.84
X6.9108Y-4.7996
X6.9423Y-4.5884
X6.962Y-4.6294
X6.9709Y-4.7977
X6.9714Y-4.7638
X6.983Y-2.5843
X7.0511Y-4.5766
T2
X5.8366Y-5.1181
X5.8366Y-5.2362
X5.8366Y-5.3543
T3
X5.7661Y-2.0433
X5.7661Y-2.1433
X5.7661Y-2.2433
X5.7661Y-2.3433
X5.7661Y-2.4433
X5.7661Y-2.5433
X5.7661Y-2.6433
X5.7661Y-2.7433
X5.7661Y-2.8433
X5.7661Y-2.9433
X5.7661Y-3.0433
X5.7661Y-3.1433
X5.7661Y-3.2433
X5.7661Y-3.3433
X5.7661Y-3.4433
X5.7661Y-3.5433
X5.7661Y-3.6433
X5.7661Y-3.7433
X5.7661Y-3.8433
X5.7661Y-3.9433
X5.7661Y-4.0433
X5.7661Y-4.1433
X5.7661Y-4.2433
X5.8661Y-2.0433
X5.8661Y-2.1433
X5.8661Y-2.2433
X5.8661Y-2.3433
X5.8661Y-2.4433
X5.8661Y-2.5433
X5.8661Y-2.6433
X5.8661Y-2.7433
X5.8661Y-2.8433
X5.8661Y-2.9433
X5.8661Y-3.0433
X5.8661Y-3.1433
X5.8661Y-3.2433
X5.8661Y-3.3433
X5.8661Y-3.4433
X5.8661Y-3.5433
X5.8661Y-3.6433
X5.8661Y-3.7433
X5.8661Y-3.8433
X5.8661Y-3.9433
X5.8661Y-4.0433
X5.8661Y-4.1433
X5.8661Y-4.2433
T0
M30
