G04 #@! TF.GenerationSoftware,KiCad,Pcbnew,(5.1.0-0)*
G04 #@! TF.CreationDate,2019-05-29T01:55:44-04:00*
G04 #@! TF.ProjectId,MacBook Pro 2016-up Data Recovery Breakout Adapter,4d616342-6f6f-46b2-9050-726f20323031,rev?*
G04 #@! TF.SameCoordinates,Original*
G04 #@! TF.FileFunction,Copper,L1,Top*
G04 #@! TF.FilePolarity,Positive*
%FSLAX46Y46*%
G04 Gerber Fmt 4.6, Leading zero omitted, Abs format (unit mm)*
G04 Created by KiCad (PCBNEW (5.1.0-0)) date 2019-05-29 01:55:44*
%MOMM*%
%LPD*%
G04 APERTURE LIST*
%ADD10R,0.490000X0.730000*%
%ADD11R,0.690000X0.220000*%
%ADD12C,0.100000*%
%ADD13C,0.975000*%
%ADD14C,1.600000*%
%ADD15O,1.700000X1.700000*%
%ADD16R,1.700000X1.700000*%
%ADD17R,0.450000X0.200000*%
%ADD18R,0.300000X0.500000*%
%ADD19R,0.280000X0.220000*%
%ADD20R,0.900000X0.230000*%
%ADD21R,0.230000X0.500000*%
%ADD22C,0.600000*%
%ADD23C,0.160000*%
%ADD24C,0.254000*%
G04 APERTURE END LIST*
D10*
X176400000Y-127650000D03*
X173600000Y-127650000D03*
X176400000Y-118350000D03*
X173600000Y-118350000D03*
D11*
X173700000Y-126600000D03*
X176300000Y-119800000D03*
X173700000Y-126200000D03*
X176300000Y-119400000D03*
X173700000Y-125800000D03*
X176300000Y-119000000D03*
X173700000Y-125400000D03*
X176300000Y-127000000D03*
X173700000Y-125000000D03*
X176300000Y-126600000D03*
X173700000Y-124600000D03*
X176300000Y-126200000D03*
X173700000Y-124200000D03*
X176300000Y-125800000D03*
X173700000Y-123800000D03*
X176300000Y-125400000D03*
X173700000Y-123400000D03*
X176300000Y-125000000D03*
X173700000Y-123000000D03*
X176300000Y-124600000D03*
X173700000Y-122600000D03*
X176300000Y-124200000D03*
X173700000Y-122200000D03*
X176300000Y-123800000D03*
X173700000Y-121800000D03*
X176300000Y-123400000D03*
X173700000Y-121400000D03*
X176300000Y-123000000D03*
X173700000Y-121000000D03*
X176300000Y-122600000D03*
X173700000Y-120600000D03*
X176300000Y-122200000D03*
X173700000Y-120200000D03*
X176300000Y-121800000D03*
X173700000Y-119800000D03*
X176300000Y-121400000D03*
X173700000Y-119400000D03*
X176300000Y-121000000D03*
X173700000Y-119000000D03*
X176300000Y-120600000D03*
X173700000Y-127000000D03*
X176300000Y-120200000D03*
D12*
G36*
X146267142Y-123301174D02*
G01*
X146290803Y-123304684D01*
X146314007Y-123310496D01*
X146336529Y-123318554D01*
X146358153Y-123328782D01*
X146378670Y-123341079D01*
X146397883Y-123355329D01*
X146415607Y-123371393D01*
X146431671Y-123389117D01*
X146445921Y-123408330D01*
X146458218Y-123428847D01*
X146468446Y-123450471D01*
X146476504Y-123472993D01*
X146482316Y-123496197D01*
X146485826Y-123519858D01*
X146487000Y-123543750D01*
X146487000Y-124456250D01*
X146485826Y-124480142D01*
X146482316Y-124503803D01*
X146476504Y-124527007D01*
X146468446Y-124549529D01*
X146458218Y-124571153D01*
X146445921Y-124591670D01*
X146431671Y-124610883D01*
X146415607Y-124628607D01*
X146397883Y-124644671D01*
X146378670Y-124658921D01*
X146358153Y-124671218D01*
X146336529Y-124681446D01*
X146314007Y-124689504D01*
X146290803Y-124695316D01*
X146267142Y-124698826D01*
X146243250Y-124700000D01*
X145755750Y-124700000D01*
X145731858Y-124698826D01*
X145708197Y-124695316D01*
X145684993Y-124689504D01*
X145662471Y-124681446D01*
X145640847Y-124671218D01*
X145620330Y-124658921D01*
X145601117Y-124644671D01*
X145583393Y-124628607D01*
X145567329Y-124610883D01*
X145553079Y-124591670D01*
X145540782Y-124571153D01*
X145530554Y-124549529D01*
X145522496Y-124527007D01*
X145516684Y-124503803D01*
X145513174Y-124480142D01*
X145512000Y-124456250D01*
X145512000Y-123543750D01*
X145513174Y-123519858D01*
X145516684Y-123496197D01*
X145522496Y-123472993D01*
X145530554Y-123450471D01*
X145540782Y-123428847D01*
X145553079Y-123408330D01*
X145567329Y-123389117D01*
X145583393Y-123371393D01*
X145601117Y-123355329D01*
X145620330Y-123341079D01*
X145640847Y-123328782D01*
X145662471Y-123318554D01*
X145684993Y-123310496D01*
X145708197Y-123304684D01*
X145731858Y-123301174D01*
X145755750Y-123300000D01*
X146243250Y-123300000D01*
X146267142Y-123301174D01*
X146267142Y-123301174D01*
G37*
D13*
X145999500Y-124000000D03*
D12*
G36*
X144392142Y-123301174D02*
G01*
X144415803Y-123304684D01*
X144439007Y-123310496D01*
X144461529Y-123318554D01*
X144483153Y-123328782D01*
X144503670Y-123341079D01*
X144522883Y-123355329D01*
X144540607Y-123371393D01*
X144556671Y-123389117D01*
X144570921Y-123408330D01*
X144583218Y-123428847D01*
X144593446Y-123450471D01*
X144601504Y-123472993D01*
X144607316Y-123496197D01*
X144610826Y-123519858D01*
X144612000Y-123543750D01*
X144612000Y-124456250D01*
X144610826Y-124480142D01*
X144607316Y-124503803D01*
X144601504Y-124527007D01*
X144593446Y-124549529D01*
X144583218Y-124571153D01*
X144570921Y-124591670D01*
X144556671Y-124610883D01*
X144540607Y-124628607D01*
X144522883Y-124644671D01*
X144503670Y-124658921D01*
X144483153Y-124671218D01*
X144461529Y-124681446D01*
X144439007Y-124689504D01*
X144415803Y-124695316D01*
X144392142Y-124698826D01*
X144368250Y-124700000D01*
X143880750Y-124700000D01*
X143856858Y-124698826D01*
X143833197Y-124695316D01*
X143809993Y-124689504D01*
X143787471Y-124681446D01*
X143765847Y-124671218D01*
X143745330Y-124658921D01*
X143726117Y-124644671D01*
X143708393Y-124628607D01*
X143692329Y-124610883D01*
X143678079Y-124591670D01*
X143665782Y-124571153D01*
X143655554Y-124549529D01*
X143647496Y-124527007D01*
X143641684Y-124503803D01*
X143638174Y-124480142D01*
X143637000Y-124456250D01*
X143637000Y-123543750D01*
X143638174Y-123519858D01*
X143641684Y-123496197D01*
X143647496Y-123472993D01*
X143655554Y-123450471D01*
X143665782Y-123428847D01*
X143678079Y-123408330D01*
X143692329Y-123389117D01*
X143708393Y-123371393D01*
X143726117Y-123355329D01*
X143745330Y-123341079D01*
X143765847Y-123328782D01*
X143787471Y-123318554D01*
X143809993Y-123310496D01*
X143833197Y-123304684D01*
X143856858Y-123301174D01*
X143880750Y-123300000D01*
X144368250Y-123300000D01*
X144392142Y-123301174D01*
X144392142Y-123301174D01*
G37*
D13*
X144124500Y-124000000D03*
D12*
G36*
X137330142Y-119301174D02*
G01*
X137353803Y-119304684D01*
X137377007Y-119310496D01*
X137399529Y-119318554D01*
X137421153Y-119328782D01*
X137441670Y-119341079D01*
X137460883Y-119355329D01*
X137478607Y-119371393D01*
X137494671Y-119389117D01*
X137508921Y-119408330D01*
X137521218Y-119428847D01*
X137531446Y-119450471D01*
X137539504Y-119472993D01*
X137545316Y-119496197D01*
X137548826Y-119519858D01*
X137550000Y-119543750D01*
X137550000Y-120456250D01*
X137548826Y-120480142D01*
X137545316Y-120503803D01*
X137539504Y-120527007D01*
X137531446Y-120549529D01*
X137521218Y-120571153D01*
X137508921Y-120591670D01*
X137494671Y-120610883D01*
X137478607Y-120628607D01*
X137460883Y-120644671D01*
X137441670Y-120658921D01*
X137421153Y-120671218D01*
X137399529Y-120681446D01*
X137377007Y-120689504D01*
X137353803Y-120695316D01*
X137330142Y-120698826D01*
X137306250Y-120700000D01*
X136818750Y-120700000D01*
X136794858Y-120698826D01*
X136771197Y-120695316D01*
X136747993Y-120689504D01*
X136725471Y-120681446D01*
X136703847Y-120671218D01*
X136683330Y-120658921D01*
X136664117Y-120644671D01*
X136646393Y-120628607D01*
X136630329Y-120610883D01*
X136616079Y-120591670D01*
X136603782Y-120571153D01*
X136593554Y-120549529D01*
X136585496Y-120527007D01*
X136579684Y-120503803D01*
X136576174Y-120480142D01*
X136575000Y-120456250D01*
X136575000Y-119543750D01*
X136576174Y-119519858D01*
X136579684Y-119496197D01*
X136585496Y-119472993D01*
X136593554Y-119450471D01*
X136603782Y-119428847D01*
X136616079Y-119408330D01*
X136630329Y-119389117D01*
X136646393Y-119371393D01*
X136664117Y-119355329D01*
X136683330Y-119341079D01*
X136703847Y-119328782D01*
X136725471Y-119318554D01*
X136747993Y-119310496D01*
X136771197Y-119304684D01*
X136794858Y-119301174D01*
X136818750Y-119300000D01*
X137306250Y-119300000D01*
X137330142Y-119301174D01*
X137330142Y-119301174D01*
G37*
D13*
X137062500Y-120000000D03*
D12*
G36*
X139205142Y-119301174D02*
G01*
X139228803Y-119304684D01*
X139252007Y-119310496D01*
X139274529Y-119318554D01*
X139296153Y-119328782D01*
X139316670Y-119341079D01*
X139335883Y-119355329D01*
X139353607Y-119371393D01*
X139369671Y-119389117D01*
X139383921Y-119408330D01*
X139396218Y-119428847D01*
X139406446Y-119450471D01*
X139414504Y-119472993D01*
X139420316Y-119496197D01*
X139423826Y-119519858D01*
X139425000Y-119543750D01*
X139425000Y-120456250D01*
X139423826Y-120480142D01*
X139420316Y-120503803D01*
X139414504Y-120527007D01*
X139406446Y-120549529D01*
X139396218Y-120571153D01*
X139383921Y-120591670D01*
X139369671Y-120610883D01*
X139353607Y-120628607D01*
X139335883Y-120644671D01*
X139316670Y-120658921D01*
X139296153Y-120671218D01*
X139274529Y-120681446D01*
X139252007Y-120689504D01*
X139228803Y-120695316D01*
X139205142Y-120698826D01*
X139181250Y-120700000D01*
X138693750Y-120700000D01*
X138669858Y-120698826D01*
X138646197Y-120695316D01*
X138622993Y-120689504D01*
X138600471Y-120681446D01*
X138578847Y-120671218D01*
X138558330Y-120658921D01*
X138539117Y-120644671D01*
X138521393Y-120628607D01*
X138505329Y-120610883D01*
X138491079Y-120591670D01*
X138478782Y-120571153D01*
X138468554Y-120549529D01*
X138460496Y-120527007D01*
X138454684Y-120503803D01*
X138451174Y-120480142D01*
X138450000Y-120456250D01*
X138450000Y-119543750D01*
X138451174Y-119519858D01*
X138454684Y-119496197D01*
X138460496Y-119472993D01*
X138468554Y-119450471D01*
X138478782Y-119428847D01*
X138491079Y-119408330D01*
X138505329Y-119389117D01*
X138521393Y-119371393D01*
X138539117Y-119355329D01*
X138558330Y-119341079D01*
X138578847Y-119328782D01*
X138600471Y-119318554D01*
X138622993Y-119310496D01*
X138646197Y-119304684D01*
X138669858Y-119301174D01*
X138693750Y-119300000D01*
X139181250Y-119300000D01*
X139205142Y-119301174D01*
X139205142Y-119301174D01*
G37*
D13*
X138937500Y-120000000D03*
D12*
G36*
X139267142Y-121301174D02*
G01*
X139290803Y-121304684D01*
X139314007Y-121310496D01*
X139336529Y-121318554D01*
X139358153Y-121328782D01*
X139378670Y-121341079D01*
X139397883Y-121355329D01*
X139415607Y-121371393D01*
X139431671Y-121389117D01*
X139445921Y-121408330D01*
X139458218Y-121428847D01*
X139468446Y-121450471D01*
X139476504Y-121472993D01*
X139482316Y-121496197D01*
X139485826Y-121519858D01*
X139487000Y-121543750D01*
X139487000Y-122456250D01*
X139485826Y-122480142D01*
X139482316Y-122503803D01*
X139476504Y-122527007D01*
X139468446Y-122549529D01*
X139458218Y-122571153D01*
X139445921Y-122591670D01*
X139431671Y-122610883D01*
X139415607Y-122628607D01*
X139397883Y-122644671D01*
X139378670Y-122658921D01*
X139358153Y-122671218D01*
X139336529Y-122681446D01*
X139314007Y-122689504D01*
X139290803Y-122695316D01*
X139267142Y-122698826D01*
X139243250Y-122700000D01*
X138755750Y-122700000D01*
X138731858Y-122698826D01*
X138708197Y-122695316D01*
X138684993Y-122689504D01*
X138662471Y-122681446D01*
X138640847Y-122671218D01*
X138620330Y-122658921D01*
X138601117Y-122644671D01*
X138583393Y-122628607D01*
X138567329Y-122610883D01*
X138553079Y-122591670D01*
X138540782Y-122571153D01*
X138530554Y-122549529D01*
X138522496Y-122527007D01*
X138516684Y-122503803D01*
X138513174Y-122480142D01*
X138512000Y-122456250D01*
X138512000Y-121543750D01*
X138513174Y-121519858D01*
X138516684Y-121496197D01*
X138522496Y-121472993D01*
X138530554Y-121450471D01*
X138540782Y-121428847D01*
X138553079Y-121408330D01*
X138567329Y-121389117D01*
X138583393Y-121371393D01*
X138601117Y-121355329D01*
X138620330Y-121341079D01*
X138640847Y-121328782D01*
X138662471Y-121318554D01*
X138684993Y-121310496D01*
X138708197Y-121304684D01*
X138731858Y-121301174D01*
X138755750Y-121300000D01*
X139243250Y-121300000D01*
X139267142Y-121301174D01*
X139267142Y-121301174D01*
G37*
D13*
X138999500Y-122000000D03*
D12*
G36*
X137392142Y-121301174D02*
G01*
X137415803Y-121304684D01*
X137439007Y-121310496D01*
X137461529Y-121318554D01*
X137483153Y-121328782D01*
X137503670Y-121341079D01*
X137522883Y-121355329D01*
X137540607Y-121371393D01*
X137556671Y-121389117D01*
X137570921Y-121408330D01*
X137583218Y-121428847D01*
X137593446Y-121450471D01*
X137601504Y-121472993D01*
X137607316Y-121496197D01*
X137610826Y-121519858D01*
X137612000Y-121543750D01*
X137612000Y-122456250D01*
X137610826Y-122480142D01*
X137607316Y-122503803D01*
X137601504Y-122527007D01*
X137593446Y-122549529D01*
X137583218Y-122571153D01*
X137570921Y-122591670D01*
X137556671Y-122610883D01*
X137540607Y-122628607D01*
X137522883Y-122644671D01*
X137503670Y-122658921D01*
X137483153Y-122671218D01*
X137461529Y-122681446D01*
X137439007Y-122689504D01*
X137415803Y-122695316D01*
X137392142Y-122698826D01*
X137368250Y-122700000D01*
X136880750Y-122700000D01*
X136856858Y-122698826D01*
X136833197Y-122695316D01*
X136809993Y-122689504D01*
X136787471Y-122681446D01*
X136765847Y-122671218D01*
X136745330Y-122658921D01*
X136726117Y-122644671D01*
X136708393Y-122628607D01*
X136692329Y-122610883D01*
X136678079Y-122591670D01*
X136665782Y-122571153D01*
X136655554Y-122549529D01*
X136647496Y-122527007D01*
X136641684Y-122503803D01*
X136638174Y-122480142D01*
X136637000Y-122456250D01*
X136637000Y-121543750D01*
X136638174Y-121519858D01*
X136641684Y-121496197D01*
X136647496Y-121472993D01*
X136655554Y-121450471D01*
X136665782Y-121428847D01*
X136678079Y-121408330D01*
X136692329Y-121389117D01*
X136708393Y-121371393D01*
X136726117Y-121355329D01*
X136745330Y-121341079D01*
X136765847Y-121328782D01*
X136787471Y-121318554D01*
X136809993Y-121310496D01*
X136833197Y-121304684D01*
X136856858Y-121301174D01*
X136880750Y-121300000D01*
X137368250Y-121300000D01*
X137392142Y-121301174D01*
X137392142Y-121301174D01*
G37*
D13*
X137124500Y-122000000D03*
D12*
G36*
X137392142Y-123301174D02*
G01*
X137415803Y-123304684D01*
X137439007Y-123310496D01*
X137461529Y-123318554D01*
X137483153Y-123328782D01*
X137503670Y-123341079D01*
X137522883Y-123355329D01*
X137540607Y-123371393D01*
X137556671Y-123389117D01*
X137570921Y-123408330D01*
X137583218Y-123428847D01*
X137593446Y-123450471D01*
X137601504Y-123472993D01*
X137607316Y-123496197D01*
X137610826Y-123519858D01*
X137612000Y-123543750D01*
X137612000Y-124456250D01*
X137610826Y-124480142D01*
X137607316Y-124503803D01*
X137601504Y-124527007D01*
X137593446Y-124549529D01*
X137583218Y-124571153D01*
X137570921Y-124591670D01*
X137556671Y-124610883D01*
X137540607Y-124628607D01*
X137522883Y-124644671D01*
X137503670Y-124658921D01*
X137483153Y-124671218D01*
X137461529Y-124681446D01*
X137439007Y-124689504D01*
X137415803Y-124695316D01*
X137392142Y-124698826D01*
X137368250Y-124700000D01*
X136880750Y-124700000D01*
X136856858Y-124698826D01*
X136833197Y-124695316D01*
X136809993Y-124689504D01*
X136787471Y-124681446D01*
X136765847Y-124671218D01*
X136745330Y-124658921D01*
X136726117Y-124644671D01*
X136708393Y-124628607D01*
X136692329Y-124610883D01*
X136678079Y-124591670D01*
X136665782Y-124571153D01*
X136655554Y-124549529D01*
X136647496Y-124527007D01*
X136641684Y-124503803D01*
X136638174Y-124480142D01*
X136637000Y-124456250D01*
X136637000Y-123543750D01*
X136638174Y-123519858D01*
X136641684Y-123496197D01*
X136647496Y-123472993D01*
X136655554Y-123450471D01*
X136665782Y-123428847D01*
X136678079Y-123408330D01*
X136692329Y-123389117D01*
X136708393Y-123371393D01*
X136726117Y-123355329D01*
X136745330Y-123341079D01*
X136765847Y-123328782D01*
X136787471Y-123318554D01*
X136809993Y-123310496D01*
X136833197Y-123304684D01*
X136856858Y-123301174D01*
X136880750Y-123300000D01*
X137368250Y-123300000D01*
X137392142Y-123301174D01*
X137392142Y-123301174D01*
G37*
D13*
X137124500Y-124000000D03*
D12*
G36*
X139267142Y-123301174D02*
G01*
X139290803Y-123304684D01*
X139314007Y-123310496D01*
X139336529Y-123318554D01*
X139358153Y-123328782D01*
X139378670Y-123341079D01*
X139397883Y-123355329D01*
X139415607Y-123371393D01*
X139431671Y-123389117D01*
X139445921Y-123408330D01*
X139458218Y-123428847D01*
X139468446Y-123450471D01*
X139476504Y-123472993D01*
X139482316Y-123496197D01*
X139485826Y-123519858D01*
X139487000Y-123543750D01*
X139487000Y-124456250D01*
X139485826Y-124480142D01*
X139482316Y-124503803D01*
X139476504Y-124527007D01*
X139468446Y-124549529D01*
X139458218Y-124571153D01*
X139445921Y-124591670D01*
X139431671Y-124610883D01*
X139415607Y-124628607D01*
X139397883Y-124644671D01*
X139378670Y-124658921D01*
X139358153Y-124671218D01*
X139336529Y-124681446D01*
X139314007Y-124689504D01*
X139290803Y-124695316D01*
X139267142Y-124698826D01*
X139243250Y-124700000D01*
X138755750Y-124700000D01*
X138731858Y-124698826D01*
X138708197Y-124695316D01*
X138684993Y-124689504D01*
X138662471Y-124681446D01*
X138640847Y-124671218D01*
X138620330Y-124658921D01*
X138601117Y-124644671D01*
X138583393Y-124628607D01*
X138567329Y-124610883D01*
X138553079Y-124591670D01*
X138540782Y-124571153D01*
X138530554Y-124549529D01*
X138522496Y-124527007D01*
X138516684Y-124503803D01*
X138513174Y-124480142D01*
X138512000Y-124456250D01*
X138512000Y-123543750D01*
X138513174Y-123519858D01*
X138516684Y-123496197D01*
X138522496Y-123472993D01*
X138530554Y-123450471D01*
X138540782Y-123428847D01*
X138553079Y-123408330D01*
X138567329Y-123389117D01*
X138583393Y-123371393D01*
X138601117Y-123355329D01*
X138620330Y-123341079D01*
X138640847Y-123328782D01*
X138662471Y-123318554D01*
X138684993Y-123310496D01*
X138708197Y-123304684D01*
X138731858Y-123301174D01*
X138755750Y-123300000D01*
X139243250Y-123300000D01*
X139267142Y-123301174D01*
X139267142Y-123301174D01*
G37*
D13*
X138999500Y-124000000D03*
D14*
X148250000Y-130000000D03*
X148250000Y-133000000D03*
X148250000Y-136000000D03*
D15*
X146460000Y-107780000D03*
X149000000Y-107780000D03*
X146460000Y-105240000D03*
X149000000Y-105240000D03*
X146460000Y-102700000D03*
X149000000Y-102700000D03*
X146460000Y-100160000D03*
X149000000Y-100160000D03*
X146460000Y-97620000D03*
X149000000Y-97620000D03*
X146460000Y-95080000D03*
X149000000Y-95080000D03*
X146460000Y-92540000D03*
X149000000Y-92540000D03*
X146460000Y-90000000D03*
X149000000Y-90000000D03*
X146460000Y-87460000D03*
X149000000Y-87460000D03*
X146460000Y-84920000D03*
X149000000Y-84920000D03*
X146460000Y-82380000D03*
X149000000Y-82380000D03*
X146460000Y-79840000D03*
X149000000Y-79840000D03*
X146460000Y-77300000D03*
X149000000Y-77300000D03*
X146460000Y-74760000D03*
X149000000Y-74760000D03*
X146460000Y-72220000D03*
X149000000Y-72220000D03*
X146460000Y-69680000D03*
X149000000Y-69680000D03*
X146460000Y-67140000D03*
X149000000Y-67140000D03*
X146460000Y-64600000D03*
X149000000Y-64600000D03*
X146460000Y-62060000D03*
X149000000Y-62060000D03*
X146460000Y-59520000D03*
X149000000Y-59520000D03*
X146460000Y-56980000D03*
X149000000Y-56980000D03*
X146460000Y-54440000D03*
X149000000Y-54440000D03*
X146460000Y-51900000D03*
D16*
X149000000Y-51900000D03*
D17*
X125250000Y-126500000D03*
X126750000Y-126500000D03*
X125250000Y-126150000D03*
X126750000Y-126150000D03*
X125250000Y-125800000D03*
X126750000Y-125800000D03*
X125250000Y-125450000D03*
X126750000Y-125450000D03*
X125250000Y-125100000D03*
X126750000Y-125100000D03*
X125250000Y-124750000D03*
X126750000Y-124750000D03*
X125250000Y-124400000D03*
X126750000Y-124400000D03*
X125250000Y-124050000D03*
X126750000Y-124050000D03*
X125250000Y-123700000D03*
X126750000Y-123700000D03*
X125250000Y-123350000D03*
X126750000Y-123350000D03*
X125250000Y-123000000D03*
X126750000Y-123000000D03*
X125250000Y-122650000D03*
X126750000Y-122650000D03*
X125250000Y-122300000D03*
X126750000Y-122300000D03*
X125250000Y-121950000D03*
X126750000Y-121950000D03*
X125250000Y-121600000D03*
X126750000Y-121600000D03*
X125250000Y-121250000D03*
X126750000Y-121250000D03*
X125250000Y-120900000D03*
X126750000Y-120900000D03*
X125250000Y-120550000D03*
X126750000Y-120550000D03*
X125250000Y-120200000D03*
X126750000Y-120200000D03*
X125250000Y-119850000D03*
X126750000Y-119850000D03*
X125250000Y-119500000D03*
X126750000Y-119500000D03*
D18*
X125175000Y-127000000D03*
X125175000Y-119000000D03*
X126825000Y-119000000D03*
X126825000Y-127000000D03*
D19*
X124640000Y-119325000D03*
X127350000Y-119325000D03*
X127360000Y-120375000D03*
X127360000Y-121425000D03*
X127360000Y-122475000D03*
X127360000Y-123525000D03*
X127360000Y-124575000D03*
X127350000Y-125625000D03*
X127360000Y-126675000D03*
X124635000Y-126670000D03*
X124625000Y-125620000D03*
X124635000Y-124570000D03*
X124635000Y-123520000D03*
X124635000Y-122470000D03*
X124635000Y-121420000D03*
X124635000Y-120370000D03*
D20*
X126000000Y-117310000D03*
X126000000Y-128690000D03*
D21*
X124610000Y-127500000D03*
X127390000Y-127500000D03*
X124610000Y-118500000D03*
X127380000Y-118500000D03*
D12*
G36*
X144368142Y-119301174D02*
G01*
X144391803Y-119304684D01*
X144415007Y-119310496D01*
X144437529Y-119318554D01*
X144459153Y-119328782D01*
X144479670Y-119341079D01*
X144498883Y-119355329D01*
X144516607Y-119371393D01*
X144532671Y-119389117D01*
X144546921Y-119408330D01*
X144559218Y-119428847D01*
X144569446Y-119450471D01*
X144577504Y-119472993D01*
X144583316Y-119496197D01*
X144586826Y-119519858D01*
X144588000Y-119543750D01*
X144588000Y-120456250D01*
X144586826Y-120480142D01*
X144583316Y-120503803D01*
X144577504Y-120527007D01*
X144569446Y-120549529D01*
X144559218Y-120571153D01*
X144546921Y-120591670D01*
X144532671Y-120610883D01*
X144516607Y-120628607D01*
X144498883Y-120644671D01*
X144479670Y-120658921D01*
X144459153Y-120671218D01*
X144437529Y-120681446D01*
X144415007Y-120689504D01*
X144391803Y-120695316D01*
X144368142Y-120698826D01*
X144344250Y-120700000D01*
X143856750Y-120700000D01*
X143832858Y-120698826D01*
X143809197Y-120695316D01*
X143785993Y-120689504D01*
X143763471Y-120681446D01*
X143741847Y-120671218D01*
X143721330Y-120658921D01*
X143702117Y-120644671D01*
X143684393Y-120628607D01*
X143668329Y-120610883D01*
X143654079Y-120591670D01*
X143641782Y-120571153D01*
X143631554Y-120549529D01*
X143623496Y-120527007D01*
X143617684Y-120503803D01*
X143614174Y-120480142D01*
X143613000Y-120456250D01*
X143613000Y-119543750D01*
X143614174Y-119519858D01*
X143617684Y-119496197D01*
X143623496Y-119472993D01*
X143631554Y-119450471D01*
X143641782Y-119428847D01*
X143654079Y-119408330D01*
X143668329Y-119389117D01*
X143684393Y-119371393D01*
X143702117Y-119355329D01*
X143721330Y-119341079D01*
X143741847Y-119328782D01*
X143763471Y-119318554D01*
X143785993Y-119310496D01*
X143809197Y-119304684D01*
X143832858Y-119301174D01*
X143856750Y-119300000D01*
X144344250Y-119300000D01*
X144368142Y-119301174D01*
X144368142Y-119301174D01*
G37*
D13*
X144100500Y-120000000D03*
D12*
G36*
X146243142Y-119301174D02*
G01*
X146266803Y-119304684D01*
X146290007Y-119310496D01*
X146312529Y-119318554D01*
X146334153Y-119328782D01*
X146354670Y-119341079D01*
X146373883Y-119355329D01*
X146391607Y-119371393D01*
X146407671Y-119389117D01*
X146421921Y-119408330D01*
X146434218Y-119428847D01*
X146444446Y-119450471D01*
X146452504Y-119472993D01*
X146458316Y-119496197D01*
X146461826Y-119519858D01*
X146463000Y-119543750D01*
X146463000Y-120456250D01*
X146461826Y-120480142D01*
X146458316Y-120503803D01*
X146452504Y-120527007D01*
X146444446Y-120549529D01*
X146434218Y-120571153D01*
X146421921Y-120591670D01*
X146407671Y-120610883D01*
X146391607Y-120628607D01*
X146373883Y-120644671D01*
X146354670Y-120658921D01*
X146334153Y-120671218D01*
X146312529Y-120681446D01*
X146290007Y-120689504D01*
X146266803Y-120695316D01*
X146243142Y-120698826D01*
X146219250Y-120700000D01*
X145731750Y-120700000D01*
X145707858Y-120698826D01*
X145684197Y-120695316D01*
X145660993Y-120689504D01*
X145638471Y-120681446D01*
X145616847Y-120671218D01*
X145596330Y-120658921D01*
X145577117Y-120644671D01*
X145559393Y-120628607D01*
X145543329Y-120610883D01*
X145529079Y-120591670D01*
X145516782Y-120571153D01*
X145506554Y-120549529D01*
X145498496Y-120527007D01*
X145492684Y-120503803D01*
X145489174Y-120480142D01*
X145488000Y-120456250D01*
X145488000Y-119543750D01*
X145489174Y-119519858D01*
X145492684Y-119496197D01*
X145498496Y-119472993D01*
X145506554Y-119450471D01*
X145516782Y-119428847D01*
X145529079Y-119408330D01*
X145543329Y-119389117D01*
X145559393Y-119371393D01*
X145577117Y-119355329D01*
X145596330Y-119341079D01*
X145616847Y-119328782D01*
X145638471Y-119318554D01*
X145660993Y-119310496D01*
X145684197Y-119304684D01*
X145707858Y-119301174D01*
X145731750Y-119300000D01*
X146219250Y-119300000D01*
X146243142Y-119301174D01*
X146243142Y-119301174D01*
G37*
D13*
X145975500Y-120000000D03*
D12*
G36*
X146243142Y-121301174D02*
G01*
X146266803Y-121304684D01*
X146290007Y-121310496D01*
X146312529Y-121318554D01*
X146334153Y-121328782D01*
X146354670Y-121341079D01*
X146373883Y-121355329D01*
X146391607Y-121371393D01*
X146407671Y-121389117D01*
X146421921Y-121408330D01*
X146434218Y-121428847D01*
X146444446Y-121450471D01*
X146452504Y-121472993D01*
X146458316Y-121496197D01*
X146461826Y-121519858D01*
X146463000Y-121543750D01*
X146463000Y-122456250D01*
X146461826Y-122480142D01*
X146458316Y-122503803D01*
X146452504Y-122527007D01*
X146444446Y-122549529D01*
X146434218Y-122571153D01*
X146421921Y-122591670D01*
X146407671Y-122610883D01*
X146391607Y-122628607D01*
X146373883Y-122644671D01*
X146354670Y-122658921D01*
X146334153Y-122671218D01*
X146312529Y-122681446D01*
X146290007Y-122689504D01*
X146266803Y-122695316D01*
X146243142Y-122698826D01*
X146219250Y-122700000D01*
X145731750Y-122700000D01*
X145707858Y-122698826D01*
X145684197Y-122695316D01*
X145660993Y-122689504D01*
X145638471Y-122681446D01*
X145616847Y-122671218D01*
X145596330Y-122658921D01*
X145577117Y-122644671D01*
X145559393Y-122628607D01*
X145543329Y-122610883D01*
X145529079Y-122591670D01*
X145516782Y-122571153D01*
X145506554Y-122549529D01*
X145498496Y-122527007D01*
X145492684Y-122503803D01*
X145489174Y-122480142D01*
X145488000Y-122456250D01*
X145488000Y-121543750D01*
X145489174Y-121519858D01*
X145492684Y-121496197D01*
X145498496Y-121472993D01*
X145506554Y-121450471D01*
X145516782Y-121428847D01*
X145529079Y-121408330D01*
X145543329Y-121389117D01*
X145559393Y-121371393D01*
X145577117Y-121355329D01*
X145596330Y-121341079D01*
X145616847Y-121328782D01*
X145638471Y-121318554D01*
X145660993Y-121310496D01*
X145684197Y-121304684D01*
X145707858Y-121301174D01*
X145731750Y-121300000D01*
X146219250Y-121300000D01*
X146243142Y-121301174D01*
X146243142Y-121301174D01*
G37*
D13*
X145975500Y-122000000D03*
D12*
G36*
X144368142Y-121301174D02*
G01*
X144391803Y-121304684D01*
X144415007Y-121310496D01*
X144437529Y-121318554D01*
X144459153Y-121328782D01*
X144479670Y-121341079D01*
X144498883Y-121355329D01*
X144516607Y-121371393D01*
X144532671Y-121389117D01*
X144546921Y-121408330D01*
X144559218Y-121428847D01*
X144569446Y-121450471D01*
X144577504Y-121472993D01*
X144583316Y-121496197D01*
X144586826Y-121519858D01*
X144588000Y-121543750D01*
X144588000Y-122456250D01*
X144586826Y-122480142D01*
X144583316Y-122503803D01*
X144577504Y-122527007D01*
X144569446Y-122549529D01*
X144559218Y-122571153D01*
X144546921Y-122591670D01*
X144532671Y-122610883D01*
X144516607Y-122628607D01*
X144498883Y-122644671D01*
X144479670Y-122658921D01*
X144459153Y-122671218D01*
X144437529Y-122681446D01*
X144415007Y-122689504D01*
X144391803Y-122695316D01*
X144368142Y-122698826D01*
X144344250Y-122700000D01*
X143856750Y-122700000D01*
X143832858Y-122698826D01*
X143809197Y-122695316D01*
X143785993Y-122689504D01*
X143763471Y-122681446D01*
X143741847Y-122671218D01*
X143721330Y-122658921D01*
X143702117Y-122644671D01*
X143684393Y-122628607D01*
X143668329Y-122610883D01*
X143654079Y-122591670D01*
X143641782Y-122571153D01*
X143631554Y-122549529D01*
X143623496Y-122527007D01*
X143617684Y-122503803D01*
X143614174Y-122480142D01*
X143613000Y-122456250D01*
X143613000Y-121543750D01*
X143614174Y-121519858D01*
X143617684Y-121496197D01*
X143623496Y-121472993D01*
X143631554Y-121450471D01*
X143641782Y-121428847D01*
X143654079Y-121408330D01*
X143668329Y-121389117D01*
X143684393Y-121371393D01*
X143702117Y-121355329D01*
X143721330Y-121341079D01*
X143741847Y-121328782D01*
X143763471Y-121318554D01*
X143785993Y-121310496D01*
X143809197Y-121304684D01*
X143832858Y-121301174D01*
X143856750Y-121300000D01*
X144344250Y-121300000D01*
X144368142Y-121301174D01*
X144368142Y-121301174D01*
G37*
D13*
X144100500Y-122000000D03*
D22*
X126641100Y-116785000D03*
X145193600Y-95306100D03*
X127918600Y-119390400D03*
X124667400Y-116767100D03*
X176334100Y-116545500D03*
X179097400Y-116245400D03*
X151230000Y-104020000D03*
X133030000Y-126500000D03*
X160310000Y-115830000D03*
X137390000Y-98500000D03*
X136430000Y-115210000D03*
X132530000Y-114700000D03*
X175195000Y-120600000D03*
X174467500Y-120600000D03*
X125940700Y-125864800D03*
X136244000Y-119181500D03*
X176835300Y-117587400D03*
X177367300Y-65640300D03*
X177074400Y-121000000D03*
X126098200Y-125144800D03*
X126111900Y-123680500D03*
X175343900Y-122935600D03*
X175535100Y-121908600D03*
X134813400Y-122161000D03*
X177060300Y-121861900D03*
X128450000Y-127100000D03*
X122900000Y-123800000D03*
X125175000Y-118326800D03*
X134323100Y-116885000D03*
X128863600Y-120046800D03*
X125931300Y-122300000D03*
X137534200Y-86679700D03*
X150310600Y-102030400D03*
X124127100Y-117828500D03*
X152910100Y-83554300D03*
X145691500Y-80854900D03*
X172944700Y-121517600D03*
X172930900Y-120756800D03*
X125894400Y-124432200D03*
X172714700Y-119446000D03*
X126049200Y-126669700D03*
X173164700Y-117095500D03*
X127638600Y-117517300D03*
X145190600Y-87460000D03*
X127146400Y-115581000D03*
X135638700Y-90182400D03*
D23*
X148250000Y-130000000D02*
X145999500Y-127749500D01*
X145999500Y-127749500D02*
X145999500Y-124000000D01*
X145975500Y-120000000D02*
X145975500Y-122000000D01*
X145975500Y-122000000D02*
X145999500Y-122024000D01*
X145999500Y-122024000D02*
X145999500Y-124000000D01*
X144100500Y-120000000D02*
X138937500Y-120000000D01*
X138999500Y-122000000D02*
X144100500Y-122000000D01*
X138999500Y-124000000D02*
X144124500Y-124000000D01*
X126641100Y-116785000D02*
X126641100Y-117521600D01*
X126641100Y-117521600D02*
X125665300Y-118497400D01*
X125665300Y-118497400D02*
X125665300Y-120550000D01*
X125250000Y-120550000D02*
X125665300Y-120550000D01*
X176300000Y-123400000D02*
X175764700Y-123400000D01*
X174235300Y-123400000D02*
X174261200Y-123425900D01*
X174261200Y-123425900D02*
X175738800Y-123425900D01*
X175738800Y-123425900D02*
X175764700Y-123400000D01*
X124635000Y-123520000D02*
X124635000Y-123219700D01*
X124667400Y-116767100D02*
X124495000Y-116767100D01*
X124495000Y-116767100D02*
X123623800Y-117638300D01*
X123623800Y-117638300D02*
X123623800Y-122433700D01*
X123623800Y-122433700D02*
X124409800Y-123219700D01*
X124409800Y-123219700D02*
X124635000Y-123219700D01*
X125765100Y-117310000D02*
X125222200Y-116767100D01*
X125222200Y-116767100D02*
X124667400Y-116767100D01*
X175964700Y-118350000D02*
X175964700Y-116914900D01*
X175964700Y-116914900D02*
X176334100Y-116545500D01*
X125765100Y-117310000D02*
X126000000Y-117310000D01*
X126750000Y-123000000D02*
X126334700Y-123000000D01*
X126334700Y-123000000D02*
X125250000Y-123000000D01*
X127360000Y-123000000D02*
X126750000Y-123000000D01*
X127360000Y-122475000D02*
X127360000Y-122174700D01*
X127918600Y-119390400D02*
X127745700Y-119390400D01*
X127745700Y-119390400D02*
X127680300Y-119325000D01*
X127348500Y-121950000D02*
X127348500Y-122163200D01*
X127348500Y-122163200D02*
X127360000Y-122174700D01*
X127360000Y-121425000D02*
X127360000Y-121938500D01*
X127360000Y-121938500D02*
X127348500Y-121950000D01*
X126750000Y-121950000D02*
X127348500Y-121950000D01*
X127360000Y-123000000D02*
X127360000Y-123525000D01*
X127360000Y-122475000D02*
X127360000Y-123000000D01*
X127350000Y-119325000D02*
X127680300Y-119325000D01*
X127135300Y-124050000D02*
X127360000Y-123825300D01*
X127360000Y-123825300D02*
X127360000Y-123525000D01*
X127135300Y-124050000D02*
X127360000Y-124274700D01*
X127097700Y-124050000D02*
X127135300Y-124050000D01*
X127350000Y-119325000D02*
X127350000Y-119625300D01*
X127380000Y-118830200D02*
X127380000Y-118940300D01*
X127380000Y-118817600D02*
X127380000Y-118830200D01*
X127380000Y-118500000D02*
X127380000Y-118817600D01*
X127350000Y-119625300D02*
X127360000Y-119635300D01*
X127360000Y-119635300D02*
X127360000Y-120074700D01*
X125765100Y-117310000D02*
X125359700Y-117310000D01*
X176835300Y-122600000D02*
X177035300Y-122600000D01*
X177035300Y-122600000D02*
X179097400Y-120537900D01*
X179097400Y-120537900D02*
X179097400Y-116245400D01*
X176835300Y-122600000D02*
X176835300Y-123000000D01*
X174035300Y-118350000D02*
X175964700Y-118350000D01*
X176400000Y-118350000D02*
X175964700Y-118350000D01*
X127380000Y-118940300D02*
X127350000Y-118970300D01*
X127350000Y-118970300D02*
X127350000Y-119325000D01*
X149000000Y-92540000D02*
X149000000Y-93580300D01*
X149000000Y-93580300D02*
X147959700Y-94620600D01*
X147959700Y-94620600D02*
X147959700Y-105256900D01*
X147959700Y-105256900D02*
X146666000Y-106550600D01*
X146666000Y-106550600D02*
X146189700Y-106550600D01*
X146189700Y-106550600D02*
X145240800Y-107499500D01*
X145240800Y-107499500D02*
X145240800Y-129990800D01*
X145240800Y-129990800D02*
X148250000Y-133000000D01*
X149000000Y-92019800D02*
X149000000Y-92540000D01*
X149000000Y-92019800D02*
X149000000Y-91499700D01*
X124635000Y-121950000D02*
X124635000Y-121420000D01*
X124635000Y-122470000D02*
X124635000Y-121950000D01*
X125250000Y-121950000D02*
X124635000Y-121950000D01*
X124635000Y-120900000D02*
X125250000Y-120900000D01*
X149000000Y-91499700D02*
X150040300Y-90459400D01*
X150040300Y-90459400D02*
X150040300Y-87029100D01*
X150040300Y-87029100D02*
X149430900Y-86419700D01*
X149430900Y-86419700D02*
X146919400Y-86419700D01*
X146919400Y-86419700D02*
X146460000Y-85960300D01*
X146460000Y-84920000D02*
X146460000Y-85960300D01*
X149000000Y-84920000D02*
X149000000Y-83879700D01*
X149000000Y-77300000D02*
X149000000Y-78340300D01*
X149000000Y-78340300D02*
X147922500Y-79417800D01*
X147922500Y-79417800D02*
X147922500Y-82802200D01*
X147922500Y-82802200D02*
X149000000Y-83879700D01*
X149000000Y-76779800D02*
X149000000Y-77300000D01*
X149000000Y-76779800D02*
X149000000Y-76259700D01*
X149000000Y-76259700D02*
X147770600Y-75030300D01*
X147770600Y-75030300D02*
X147770600Y-72030900D01*
X147770600Y-72030900D02*
X146460000Y-70720300D01*
X146460000Y-69680000D02*
X146460000Y-70720300D01*
X149000000Y-68639700D02*
X147770600Y-67410300D01*
X147770600Y-67410300D02*
X147770600Y-64410900D01*
X147770600Y-64410900D02*
X146460000Y-63100300D01*
X149000000Y-69680000D02*
X149000000Y-68639700D01*
X146460000Y-62060000D02*
X146460000Y-63100300D01*
X125359700Y-117310000D02*
X124610000Y-118059700D01*
X124610000Y-118059700D02*
X124610000Y-118500000D01*
X173600000Y-118350000D02*
X174035300Y-118350000D01*
X173600000Y-127650000D02*
X173164700Y-127650000D01*
X148250000Y-133000000D02*
X167814700Y-133000000D01*
X167814700Y-133000000D02*
X173164700Y-127650000D01*
X126640300Y-128690000D02*
X130950300Y-133000000D01*
X130950300Y-133000000D02*
X148250000Y-133000000D01*
X126750000Y-124050000D02*
X127097700Y-124050000D01*
X127360000Y-124575000D02*
X127360000Y-124274700D01*
X127165300Y-125100000D02*
X127360000Y-124905300D01*
X127360000Y-124905300D02*
X127360000Y-124575000D01*
X126000000Y-128690000D02*
X126640300Y-128690000D01*
X174235300Y-121599800D02*
X174435100Y-121400000D01*
X174435100Y-121400000D02*
X176300000Y-121400000D01*
X176400000Y-127650000D02*
X173600000Y-127650000D01*
X176617700Y-127650000D02*
X176400000Y-127650000D01*
X176617700Y-127650000D02*
X176835300Y-127650000D01*
X176835300Y-125000000D02*
X177154000Y-125318700D01*
X177154000Y-125318700D02*
X177154000Y-127331300D01*
X177154000Y-127331300D02*
X176835300Y-127650000D01*
X176767700Y-125000000D02*
X176835300Y-125000000D01*
X176300000Y-125000000D02*
X176767700Y-125000000D01*
X173967700Y-121400000D02*
X174035500Y-121400000D01*
X174035500Y-121400000D02*
X174235300Y-121599800D01*
X174235300Y-121599800D02*
X174235300Y-121800000D01*
X173700000Y-121400000D02*
X173967700Y-121400000D01*
X174235300Y-123400000D02*
X174235300Y-123800000D01*
X174167700Y-122600000D02*
X174235300Y-122667600D01*
X174235300Y-122667600D02*
X174235300Y-123400000D01*
X176567700Y-123400000D02*
X176300000Y-123400000D01*
X176567700Y-123400000D02*
X176835300Y-123400000D01*
X174167700Y-122600000D02*
X174235300Y-122600000D01*
X173700000Y-122600000D02*
X174167700Y-122600000D01*
X173700000Y-124600000D02*
X174235300Y-124600000D01*
X174235300Y-124600000D02*
X174235300Y-124200000D01*
X176835300Y-125000000D02*
X176835300Y-123800000D01*
X173700000Y-121800000D02*
X174235300Y-121800000D01*
X174235300Y-121800000D02*
X174235300Y-122200000D01*
X173700000Y-123800000D02*
X174235300Y-123800000D01*
X173700000Y-124200000D02*
X174235300Y-124200000D01*
X174235300Y-124200000D02*
X174235300Y-123800000D01*
X176300000Y-123800000D02*
X176835300Y-123800000D01*
X176835300Y-123800000D02*
X176835300Y-123400000D01*
X176688900Y-123000000D02*
X176835300Y-123146400D01*
X176835300Y-123146400D02*
X176835300Y-123400000D01*
X176567700Y-123000000D02*
X176688900Y-123000000D01*
X176688900Y-123000000D02*
X176835300Y-123000000D01*
X176300000Y-123000000D02*
X176567700Y-123000000D01*
X173700000Y-122200000D02*
X174235300Y-122200000D01*
X174235300Y-122200000D02*
X174235300Y-122600000D01*
X176300000Y-122600000D02*
X176835300Y-122600000D01*
X124610000Y-127500000D02*
X124610000Y-127940300D01*
X124610000Y-127940300D02*
X125359700Y-128690000D01*
X124610000Y-127324800D02*
X124610000Y-127500000D01*
X126000000Y-128690000D02*
X125359700Y-128690000D01*
X124610000Y-127324800D02*
X124610000Y-127059700D01*
X124610000Y-118597400D02*
X124610000Y-118500000D01*
X124610000Y-118597400D02*
X124610000Y-118940300D01*
X124635000Y-120370000D02*
X124635000Y-120069700D01*
X124635000Y-120069700D02*
X124640000Y-120064700D01*
X124640000Y-120064700D02*
X124640000Y-119325000D01*
X124635000Y-120370000D02*
X124635000Y-120900000D01*
X127360000Y-120375000D02*
X127360000Y-120074700D01*
X127360000Y-120375000D02*
X127360000Y-120900000D01*
X127390000Y-127500000D02*
X127390000Y-127059700D01*
X127390000Y-127059700D02*
X127360000Y-127029700D01*
X127360000Y-127029700D02*
X127360000Y-126675000D01*
X124610000Y-118940300D02*
X124640000Y-118970300D01*
X124640000Y-118970300D02*
X124640000Y-119325000D01*
X124610000Y-127059700D02*
X124635000Y-127034700D01*
X124635000Y-127034700D02*
X124635000Y-126670000D01*
X124834700Y-125100000D02*
X124635000Y-124900300D01*
X124635000Y-124900300D02*
X124635000Y-124570000D01*
X124902300Y-125100000D02*
X124834700Y-125100000D01*
X125250000Y-125100000D02*
X124902300Y-125100000D01*
X124635000Y-126670000D02*
X124635000Y-126369700D01*
X124635000Y-126369700D02*
X124625000Y-126359700D01*
X124625000Y-126359700D02*
X124625000Y-125620000D01*
X127097700Y-125100000D02*
X127165300Y-125100000D01*
X126750000Y-125100000D02*
X127097700Y-125100000D01*
X127360000Y-126675000D02*
X127360000Y-126374700D01*
X127360000Y-126374700D02*
X127350000Y-126364700D01*
X127350000Y-126364700D02*
X127350000Y-125625000D01*
X127350000Y-125625000D02*
X127350000Y-125324700D01*
X127350000Y-125324700D02*
X127165300Y-125140000D01*
X127165300Y-125140000D02*
X127165300Y-125100000D01*
X124625000Y-125620000D02*
X124625000Y-125319700D01*
X124625000Y-125319700D02*
X124834700Y-125110000D01*
X124834700Y-125110000D02*
X124834700Y-125100000D01*
X127360000Y-120900000D02*
X127360000Y-121425000D01*
X127360000Y-120900000D02*
X126750000Y-120900000D01*
X124635000Y-120900000D02*
X124635000Y-121420000D01*
X124635000Y-124570000D02*
X124635000Y-124269700D01*
X124770300Y-124269700D02*
X124912122Y-124127878D01*
X124635000Y-124269700D02*
X124770300Y-124269700D01*
X125031851Y-124050000D02*
X124971852Y-124109999D01*
X125250000Y-124050000D02*
X125031851Y-124050000D01*
X176300000Y-120600000D02*
X175195000Y-120600000D01*
X125250000Y-125450000D02*
X125665300Y-125450000D01*
X174235300Y-120600000D02*
X174467500Y-120600000D01*
X173700000Y-120600000D02*
X174235300Y-120600000D01*
X125940700Y-125864800D02*
X125665300Y-125589400D01*
X125665300Y-125589400D02*
X125665300Y-125450000D01*
X137062500Y-120000000D02*
X136244000Y-119181500D01*
X125250000Y-126500000D02*
X125371600Y-126500000D01*
X125371600Y-126500000D02*
X125552700Y-126681100D01*
X125552700Y-126681100D02*
X125552700Y-126879900D01*
X125552700Y-126879900D02*
X126632600Y-127959800D01*
X126632600Y-127959800D02*
X129787100Y-127959800D01*
X129787100Y-127959800D02*
X137062500Y-120684400D01*
X137062500Y-120684400D02*
X137062500Y-120000000D01*
X146460000Y-51900000D02*
X146460000Y-52940300D01*
X176835300Y-117587400D02*
X176835300Y-83293100D01*
X176835300Y-83293100D02*
X149022600Y-55480400D01*
X149022600Y-55480400D02*
X148506000Y-55480400D01*
X148506000Y-55480400D02*
X147730000Y-54704400D01*
X147730000Y-54704400D02*
X147730000Y-54210300D01*
X147730000Y-54210300D02*
X146460000Y-52940300D01*
X176835300Y-120200000D02*
X176835300Y-117587400D01*
X176300000Y-120200000D02*
X176835300Y-120200000D01*
X125250000Y-124750000D02*
X125518700Y-124750000D01*
X125518700Y-124750000D02*
X125913500Y-125144800D01*
X125913500Y-125144800D02*
X126098200Y-125144800D01*
X177074400Y-121000000D02*
X177367300Y-120707100D01*
X177367300Y-120707100D02*
X177367300Y-65640300D01*
X176300000Y-121000000D02*
X177074400Y-121000000D01*
X126111900Y-123680500D02*
X125781400Y-123350000D01*
X125781400Y-123350000D02*
X125250000Y-123350000D01*
X175764700Y-122200000D02*
X175343900Y-122620800D01*
X175343900Y-122620800D02*
X175343900Y-122935600D01*
X175764700Y-122200000D02*
X175535100Y-121970400D01*
X175535100Y-121970400D02*
X175535100Y-121908600D01*
X176300000Y-122200000D02*
X175764700Y-122200000D01*
X134813400Y-122161000D02*
X134813400Y-84906900D01*
X134813400Y-84906900D02*
X146460000Y-73260300D01*
X176835300Y-121800000D02*
X176897200Y-121861900D01*
X176897200Y-121861900D02*
X177060300Y-121861900D01*
X146460000Y-72220000D02*
X146460000Y-73260300D01*
X176300000Y-121800000D02*
X176835300Y-121800000D01*
X134813400Y-122161000D02*
X133389000Y-122161000D01*
X133389000Y-122161000D02*
X128450000Y-127100000D01*
X123324264Y-123800000D02*
X122900000Y-123800000D01*
X124842132Y-123857868D02*
X123382132Y-123857868D01*
X124940001Y-123759999D02*
X124842132Y-123857868D01*
X125190001Y-123759999D02*
X124940001Y-123759999D01*
X125250000Y-123700000D02*
X125190001Y-123759999D01*
X123382132Y-123857868D02*
X123324264Y-123800000D01*
X137124500Y-122000000D02*
X137745000Y-121379500D01*
X137745000Y-121379500D02*
X137745000Y-112455300D01*
X137745000Y-112455300D02*
X146460000Y-103740300D01*
X146460000Y-100160000D02*
X146460000Y-102700000D01*
X146460000Y-97620000D02*
X146460000Y-100160000D01*
X125175000Y-118326800D02*
X125175000Y-119000000D01*
X146460000Y-102700000D02*
X146460000Y-103740300D01*
X146460000Y-107780000D02*
X147500300Y-107780000D01*
X147500300Y-107780000D02*
X164720300Y-125000000D01*
X164720300Y-125000000D02*
X173700000Y-125000000D01*
X174235300Y-125800000D02*
X175764700Y-125800000D01*
X176300000Y-125800000D02*
X175764700Y-125800000D01*
X174235300Y-126200000D02*
X174235300Y-125800000D01*
X176300000Y-127000000D02*
X176835300Y-127000000D01*
X176835300Y-127000000D02*
X176835300Y-126600000D01*
X173700000Y-127000000D02*
X174235300Y-127000000D01*
X174235300Y-127000000D02*
X174235300Y-126600000D01*
X176300000Y-126600000D02*
X176835300Y-126600000D01*
X176835300Y-126600000D02*
X176835300Y-126200000D01*
X173700000Y-126600000D02*
X174235300Y-126600000D01*
X174235300Y-126600000D02*
X174235300Y-126200000D01*
X176300000Y-125800000D02*
X176835300Y-125800000D01*
X176300000Y-126200000D02*
X176835300Y-126200000D01*
X176835300Y-126200000D02*
X176835300Y-125800000D01*
X173700000Y-126200000D02*
X174235300Y-126200000D01*
X173700000Y-125800000D02*
X174235300Y-125800000D01*
X174235300Y-125800000D02*
X174235300Y-125400000D01*
X173700000Y-125000000D02*
X174235300Y-125000000D01*
X173700000Y-125400000D02*
X174235300Y-125400000D01*
X174235300Y-125400000D02*
X174235300Y-125000000D01*
X125175000Y-119000000D02*
X125175000Y-119440300D01*
X125175000Y-119440300D02*
X125190300Y-119440300D01*
X125190300Y-119440300D02*
X125250000Y-119500000D01*
X125250000Y-119500000D02*
X125250000Y-119850000D01*
X125250000Y-119850000D02*
X125250000Y-120200000D01*
X125250000Y-122300000D02*
X125931300Y-122300000D01*
X128863600Y-120046800D02*
X132025400Y-116885000D01*
X132025400Y-116885000D02*
X134323100Y-116885000D01*
X137534200Y-86679700D02*
X143200600Y-86679700D01*
X143200600Y-86679700D02*
X146460000Y-83420300D01*
X146460000Y-82380000D02*
X146460000Y-83420300D01*
X150310600Y-102030400D02*
X150310600Y-86917200D01*
X150310600Y-86917200D02*
X149542800Y-86149400D01*
X149542800Y-86149400D02*
X148735700Y-86149400D01*
X148735700Y-86149400D02*
X147500300Y-84914000D01*
X147500300Y-84914000D02*
X147500300Y-84460600D01*
X147500300Y-84460600D02*
X146460000Y-83420300D01*
X173164700Y-123400000D02*
X151795100Y-102030400D01*
X151795100Y-102030400D02*
X150310600Y-102030400D01*
X173700000Y-123400000D02*
X173164700Y-123400000D01*
X125250000Y-122650000D02*
X124974100Y-122650000D01*
X124974100Y-122650000D02*
X124779400Y-122844700D01*
X124779400Y-122844700D02*
X124481600Y-122844700D01*
X124481600Y-122844700D02*
X124127100Y-122490200D01*
X124127100Y-122490200D02*
X124127100Y-117828500D01*
X172944700Y-121517600D02*
X152910100Y-101483000D01*
X152910100Y-101483000D02*
X152910100Y-83554300D01*
X173700000Y-123000000D02*
X173164700Y-123000000D01*
X173164700Y-123000000D02*
X173164700Y-121737600D01*
X173164700Y-121737600D02*
X172944700Y-121517600D01*
X146460000Y-68180300D02*
X147500300Y-69220600D01*
X147500300Y-69220600D02*
X147500300Y-69699400D01*
X147500300Y-69699400D02*
X148750900Y-70950000D01*
X148750900Y-70950000D02*
X149234300Y-70950000D01*
X149234300Y-70950000D02*
X172147700Y-93863400D01*
X172147700Y-93863400D02*
X172147700Y-119973700D01*
X172147700Y-119973700D02*
X172147800Y-119973700D01*
X172147800Y-119973700D02*
X172930900Y-120756800D01*
X146460000Y-67140000D02*
X146460000Y-68180300D01*
X172930900Y-120756800D02*
X173164700Y-120990600D01*
X173164700Y-120990600D02*
X173164700Y-121000000D01*
X173700000Y-121000000D02*
X173164700Y-121000000D01*
X125665300Y-124400000D02*
X125697500Y-124432200D01*
X125697500Y-124432200D02*
X125894400Y-124432200D01*
X125250000Y-124400000D02*
X125665300Y-124400000D01*
X125250000Y-126150000D02*
X125529500Y-126150000D01*
X125529500Y-126150000D02*
X126049200Y-126669700D01*
X146460000Y-55480300D02*
X147500300Y-56520600D01*
X147500300Y-56520600D02*
X147500300Y-57014700D01*
X147500300Y-57014700D02*
X148735600Y-58250000D01*
X148735600Y-58250000D02*
X149225000Y-58250000D01*
X149225000Y-58250000D02*
X172513800Y-81538800D01*
X172513800Y-81538800D02*
X172513800Y-119245100D01*
X172513800Y-119245100D02*
X172714700Y-119446000D01*
X173164700Y-120200000D02*
X173164700Y-119896000D01*
X173164700Y-119896000D02*
X172714700Y-119446000D01*
X146460000Y-54440000D02*
X146460000Y-55480300D01*
X173700000Y-120200000D02*
X173164700Y-120200000D01*
X173164700Y-119000000D02*
X173164700Y-117095500D01*
X146460000Y-106280300D02*
X146077800Y-106280300D01*
X146077800Y-106280300D02*
X138062000Y-114296100D01*
X138062000Y-114296100D02*
X138062000Y-123062500D01*
X138062000Y-123062500D02*
X137124500Y-124000000D01*
X146460000Y-105240000D02*
X146460000Y-106280300D01*
X173700000Y-119000000D02*
X173164700Y-119000000D01*
X125175000Y-127000000D02*
X125175000Y-127440300D01*
X174235300Y-119400000D02*
X175764700Y-119400000D01*
X174067700Y-119000000D02*
X174235300Y-119167600D01*
X174235300Y-119167600D02*
X174235300Y-119400000D01*
X176300000Y-119400000D02*
X175764700Y-119400000D01*
X173700000Y-119000000D02*
X174067700Y-119000000D01*
X176300000Y-119000000D02*
X176300000Y-119400000D01*
X173700000Y-119800000D02*
X174235300Y-119800000D01*
X173700000Y-119400000D02*
X174235300Y-119400000D01*
X174235300Y-119400000D02*
X174235300Y-119800000D01*
X176300000Y-119400000D02*
X176300000Y-119800000D01*
X137124500Y-124000000D02*
X132879900Y-128244600D01*
X132879900Y-128244600D02*
X125979300Y-128244600D01*
X125979300Y-128244600D02*
X125175000Y-127440300D01*
X127638600Y-117517300D02*
X126334600Y-118821300D01*
X126334600Y-118821300D02*
X126334600Y-121006600D01*
X126334600Y-121006600D02*
X125741200Y-121600000D01*
X125741200Y-121600000D02*
X125250000Y-121600000D01*
X125665300Y-121250000D02*
X125945900Y-120969400D01*
X125945900Y-120969400D02*
X125945900Y-118677700D01*
X125945900Y-118677700D02*
X127146400Y-117477200D01*
X127146400Y-117477200D02*
X127146400Y-115581000D01*
X125250000Y-121250000D02*
X125665300Y-121250000D01*
D24*
G36*
X194340000Y-138340000D02*
G01*
X105660000Y-138340000D01*
X105660000Y-135789721D01*
X105865000Y-135789721D01*
X105865000Y-136210279D01*
X105947047Y-136622756D01*
X106107988Y-137011302D01*
X106341637Y-137360983D01*
X106639017Y-137658363D01*
X106988698Y-137892012D01*
X107377244Y-138052953D01*
X107789721Y-138135000D01*
X108210279Y-138135000D01*
X108622756Y-138052953D01*
X109011302Y-137892012D01*
X109360983Y-137658363D01*
X109658363Y-137360983D01*
X109892012Y-137011302D01*
X110052953Y-136622756D01*
X110135000Y-136210279D01*
X110135000Y-135858665D01*
X146815000Y-135858665D01*
X146815000Y-136141335D01*
X146870147Y-136418574D01*
X146978320Y-136679727D01*
X147135363Y-136914759D01*
X147335241Y-137114637D01*
X147570273Y-137271680D01*
X147831426Y-137379853D01*
X148108665Y-137435000D01*
X148391335Y-137435000D01*
X148668574Y-137379853D01*
X148929727Y-137271680D01*
X149164759Y-137114637D01*
X149364637Y-136914759D01*
X149521680Y-136679727D01*
X149629853Y-136418574D01*
X149685000Y-136141335D01*
X149685000Y-135858665D01*
X149671287Y-135789721D01*
X189865000Y-135789721D01*
X189865000Y-136210279D01*
X189947047Y-136622756D01*
X190107988Y-137011302D01*
X190341637Y-137360983D01*
X190639017Y-137658363D01*
X190988698Y-137892012D01*
X191377244Y-138052953D01*
X191789721Y-138135000D01*
X192210279Y-138135000D01*
X192622756Y-138052953D01*
X193011302Y-137892012D01*
X193360983Y-137658363D01*
X193658363Y-137360983D01*
X193892012Y-137011302D01*
X194052953Y-136622756D01*
X194135000Y-136210279D01*
X194135000Y-135789721D01*
X194052953Y-135377244D01*
X193892012Y-134988698D01*
X193658363Y-134639017D01*
X193360983Y-134341637D01*
X193011302Y-134107988D01*
X192622756Y-133947047D01*
X192210279Y-133865000D01*
X191789721Y-133865000D01*
X191377244Y-133947047D01*
X190988698Y-134107988D01*
X190639017Y-134341637D01*
X190341637Y-134639017D01*
X190107988Y-134988698D01*
X189947047Y-135377244D01*
X189865000Y-135789721D01*
X149671287Y-135789721D01*
X149629853Y-135581426D01*
X149521680Y-135320273D01*
X149364637Y-135085241D01*
X149164759Y-134885363D01*
X148929727Y-134728320D01*
X148668574Y-134620147D01*
X148391335Y-134565000D01*
X148108665Y-134565000D01*
X147831426Y-134620147D01*
X147570273Y-134728320D01*
X147335241Y-134885363D01*
X147135363Y-135085241D01*
X146978320Y-135320273D01*
X146870147Y-135581426D01*
X146815000Y-135858665D01*
X110135000Y-135858665D01*
X110135000Y-135789721D01*
X110052953Y-135377244D01*
X109892012Y-134988698D01*
X109658363Y-134639017D01*
X109360983Y-134341637D01*
X109011302Y-134107988D01*
X108732977Y-133992702D01*
X147436903Y-133992702D01*
X147508486Y-134236671D01*
X147763996Y-134357571D01*
X148038184Y-134426300D01*
X148320512Y-134440217D01*
X148600130Y-134398787D01*
X148866292Y-134303603D01*
X148991514Y-134236671D01*
X149063097Y-133992702D01*
X148250000Y-133179605D01*
X147436903Y-133992702D01*
X108732977Y-133992702D01*
X108622756Y-133947047D01*
X108210279Y-133865000D01*
X107789721Y-133865000D01*
X107377244Y-133947047D01*
X106988698Y-134107988D01*
X106639017Y-134341637D01*
X106341637Y-134639017D01*
X106107988Y-134988698D01*
X105947047Y-135377244D01*
X105865000Y-135789721D01*
X105660000Y-135789721D01*
X105660000Y-133070512D01*
X146809783Y-133070512D01*
X146851213Y-133350130D01*
X146946397Y-133616292D01*
X147013329Y-133741514D01*
X147257298Y-133813097D01*
X148070395Y-133000000D01*
X148429605Y-133000000D01*
X149242702Y-133813097D01*
X149486671Y-133741514D01*
X149607571Y-133486004D01*
X149676300Y-133211816D01*
X149690217Y-132929488D01*
X149648787Y-132649870D01*
X149553603Y-132383708D01*
X149486671Y-132258486D01*
X149242702Y-132186903D01*
X148429605Y-133000000D01*
X148070395Y-133000000D01*
X147257298Y-132186903D01*
X147013329Y-132258486D01*
X146892429Y-132513996D01*
X146823700Y-132788184D01*
X146809783Y-133070512D01*
X105660000Y-133070512D01*
X105660000Y-132007298D01*
X147436903Y-132007298D01*
X148250000Y-132820395D01*
X149063097Y-132007298D01*
X148991514Y-131763329D01*
X148736004Y-131642429D01*
X148461816Y-131573700D01*
X148179488Y-131559783D01*
X147899870Y-131601213D01*
X147633708Y-131696397D01*
X147508486Y-131763329D01*
X147436903Y-132007298D01*
X105660000Y-132007298D01*
X105660000Y-123707911D01*
X121965000Y-123707911D01*
X121965000Y-123892089D01*
X122000932Y-124072729D01*
X122071414Y-124242889D01*
X122173738Y-124396028D01*
X122303972Y-124526262D01*
X122457111Y-124628586D01*
X122627271Y-124699068D01*
X122807911Y-124735000D01*
X122992089Y-124735000D01*
X123172729Y-124699068D01*
X123342889Y-124628586D01*
X123426277Y-124572868D01*
X123860000Y-124572868D01*
X123860000Y-124697002D01*
X123891748Y-124697002D01*
X123860000Y-124728750D01*
X123876698Y-124837601D01*
X123919324Y-124955197D01*
X123984074Y-125062218D01*
X124009034Y-125089529D01*
X123974074Y-125127782D01*
X123909324Y-125234803D01*
X123866698Y-125352399D01*
X123850000Y-125461250D01*
X124008750Y-125620000D01*
X123850000Y-125778750D01*
X123866698Y-125887601D01*
X123909324Y-126005197D01*
X123974074Y-126112218D01*
X124009034Y-126150471D01*
X123984074Y-126177782D01*
X123919324Y-126284803D01*
X123876698Y-126402399D01*
X123860000Y-126511250D01*
X124018750Y-126670000D01*
X123860000Y-126828750D01*
X123876698Y-126937601D01*
X123904087Y-127013160D01*
X123896531Y-127028708D01*
X123864858Y-127149715D01*
X123860000Y-127218250D01*
X124018750Y-127377000D01*
X124272575Y-127377000D01*
X124282530Y-127381658D01*
X124403990Y-127411548D01*
X124410548Y-127411930D01*
X124435498Y-127494180D01*
X124467800Y-127554611D01*
X124470346Y-127580464D01*
X124483249Y-127623000D01*
X124018750Y-127623000D01*
X123860000Y-127781750D01*
X123864858Y-127850285D01*
X123896531Y-127971292D01*
X123951202Y-128083796D01*
X124026771Y-128183472D01*
X124120334Y-128266490D01*
X124228295Y-128329659D01*
X124346506Y-128370552D01*
X124451250Y-128385000D01*
X124610000Y-128226250D01*
X124768750Y-128385000D01*
X124873494Y-128370552D01*
X124958669Y-128341087D01*
X124927989Y-128432739D01*
X124915000Y-128531250D01*
X125073750Y-128690000D01*
X124915000Y-128848750D01*
X124927989Y-128947261D01*
X124967694Y-129065875D01*
X125029777Y-129174465D01*
X125111852Y-129268856D01*
X125210765Y-129345422D01*
X125322714Y-129401219D01*
X125443398Y-129434104D01*
X125568179Y-129442813D01*
X125714250Y-129440000D01*
X125873000Y-129281250D01*
X125873000Y-128952589D01*
X125944180Y-128959600D01*
X125944190Y-128959600D01*
X125979300Y-128963058D01*
X126014410Y-128959600D01*
X126127000Y-128959600D01*
X126127000Y-129281250D01*
X126285750Y-129440000D01*
X126431821Y-129442813D01*
X126556602Y-129434104D01*
X126677286Y-129401219D01*
X126789235Y-129345422D01*
X126888148Y-129268856D01*
X126970223Y-129174465D01*
X127032306Y-129065875D01*
X127067881Y-128959600D01*
X132844790Y-128959600D01*
X132879900Y-128963058D01*
X132915010Y-128959600D01*
X132915020Y-128959600D01*
X133020064Y-128949254D01*
X133154842Y-128908370D01*
X133279054Y-128841977D01*
X133387927Y-128752627D01*
X133410320Y-128725341D01*
X136805047Y-125330616D01*
X136880750Y-125338072D01*
X137368250Y-125338072D01*
X137540285Y-125321128D01*
X137705709Y-125270947D01*
X137858164Y-125189458D01*
X137991792Y-125079792D01*
X138062000Y-124994244D01*
X138132208Y-125079792D01*
X138265836Y-125189458D01*
X138418291Y-125270947D01*
X138583715Y-125321128D01*
X138755750Y-125338072D01*
X139243250Y-125338072D01*
X139415285Y-125321128D01*
X139580709Y-125270947D01*
X139733164Y-125189458D01*
X139866792Y-125079792D01*
X139976458Y-124946164D01*
X140057947Y-124793709D01*
X140081823Y-124715000D01*
X143042177Y-124715000D01*
X143066053Y-124793709D01*
X143147542Y-124946164D01*
X143257208Y-125079792D01*
X143390836Y-125189458D01*
X143543291Y-125270947D01*
X143708715Y-125321128D01*
X143880750Y-125338072D01*
X144368250Y-125338072D01*
X144540285Y-125321128D01*
X144705709Y-125270947D01*
X144858164Y-125189458D01*
X144991792Y-125079792D01*
X145062000Y-124994244D01*
X145132208Y-125079792D01*
X145265836Y-125189458D01*
X145284501Y-125199434D01*
X145284500Y-127714390D01*
X145281042Y-127749500D01*
X145284500Y-127784610D01*
X145284500Y-127784619D01*
X145294846Y-127889663D01*
X145335730Y-128024441D01*
X145402123Y-128148653D01*
X145491473Y-128257526D01*
X145518755Y-128279916D01*
X146861871Y-129623033D01*
X146815000Y-129858665D01*
X146815000Y-130141335D01*
X146870147Y-130418574D01*
X146978320Y-130679727D01*
X147135363Y-130914759D01*
X147335241Y-131114637D01*
X147570273Y-131271680D01*
X147831426Y-131379853D01*
X148108665Y-131435000D01*
X148391335Y-131435000D01*
X148668574Y-131379853D01*
X148929727Y-131271680D01*
X149164759Y-131114637D01*
X149364637Y-130914759D01*
X149521680Y-130679727D01*
X149629853Y-130418574D01*
X149685000Y-130141335D01*
X149685000Y-129858665D01*
X149629853Y-129581426D01*
X149521680Y-129320273D01*
X149364637Y-129085241D01*
X149164759Y-128885363D01*
X148929727Y-128728320D01*
X148668574Y-128620147D01*
X148391335Y-128565000D01*
X148108665Y-128565000D01*
X147873033Y-128611871D01*
X147261324Y-128000162D01*
X172717101Y-128000162D01*
X172726463Y-128124896D01*
X172759980Y-128245405D01*
X172816363Y-128357061D01*
X172893445Y-128455571D01*
X172988265Y-128537151D01*
X173097178Y-128598664D01*
X173216000Y-128637748D01*
X173323250Y-128650000D01*
X173482000Y-128491250D01*
X173482000Y-127777000D01*
X172878750Y-127777000D01*
X172720000Y-127935750D01*
X172717101Y-128000162D01*
X147261324Y-128000162D01*
X146714500Y-127453339D01*
X146714500Y-125199434D01*
X146733164Y-125189458D01*
X146866792Y-125079792D01*
X146976458Y-124946164D01*
X147057947Y-124793709D01*
X147108128Y-124628285D01*
X147125072Y-124456250D01*
X147125072Y-123543750D01*
X147108128Y-123371715D01*
X147057947Y-123206291D01*
X146976458Y-123053836D01*
X146920276Y-122985378D01*
X146952458Y-122946164D01*
X147033947Y-122793709D01*
X147084128Y-122628285D01*
X147101072Y-122456250D01*
X147101072Y-121543750D01*
X147084128Y-121371715D01*
X147033947Y-121206291D01*
X146952458Y-121053836D01*
X146908276Y-121000000D01*
X146952458Y-120946164D01*
X147033947Y-120793709D01*
X147084128Y-120628285D01*
X147101072Y-120456250D01*
X147101072Y-119543750D01*
X147084128Y-119371715D01*
X147033947Y-119206291D01*
X146952458Y-119053836D01*
X146842792Y-118920208D01*
X146709164Y-118810542D01*
X146556709Y-118729053D01*
X146391285Y-118678872D01*
X146219250Y-118661928D01*
X145731750Y-118661928D01*
X145559715Y-118678872D01*
X145394291Y-118729053D01*
X145241836Y-118810542D01*
X145108208Y-118920208D01*
X145038000Y-119005756D01*
X144967792Y-118920208D01*
X144834164Y-118810542D01*
X144681709Y-118729053D01*
X144516285Y-118678872D01*
X144344250Y-118661928D01*
X143856750Y-118661928D01*
X143684715Y-118678872D01*
X143519291Y-118729053D01*
X143366836Y-118810542D01*
X143233208Y-118920208D01*
X143123542Y-119053836D01*
X143042053Y-119206291D01*
X143018177Y-119285000D01*
X140019823Y-119285000D01*
X139995947Y-119206291D01*
X139914458Y-119053836D01*
X139804792Y-118920208D01*
X139671164Y-118810542D01*
X139518709Y-118729053D01*
X139353285Y-118678872D01*
X139181250Y-118661928D01*
X138777000Y-118661928D01*
X138777000Y-114592261D01*
X145066698Y-108302564D01*
X145081401Y-108351034D01*
X145219294Y-108609014D01*
X145404866Y-108835134D01*
X145630986Y-109020706D01*
X145888966Y-109158599D01*
X146168889Y-109243513D01*
X146387050Y-109265000D01*
X146532950Y-109265000D01*
X146751111Y-109243513D01*
X147031034Y-109158599D01*
X147289014Y-109020706D01*
X147515134Y-108835134D01*
X147528269Y-108819130D01*
X164189889Y-125480752D01*
X164212273Y-125508027D01*
X164239548Y-125530411D01*
X164239552Y-125530415D01*
X164277046Y-125561185D01*
X164321146Y-125597377D01*
X164445358Y-125663770D01*
X164531828Y-125690000D01*
X164580135Y-125704654D01*
X164592248Y-125705847D01*
X164685180Y-125715000D01*
X164685188Y-125715000D01*
X164720300Y-125718458D01*
X164755412Y-125715000D01*
X172716928Y-125715000D01*
X172716928Y-125910000D01*
X172725792Y-126000000D01*
X172716928Y-126090000D01*
X172716928Y-126310000D01*
X172725792Y-126400000D01*
X172716928Y-126490000D01*
X172716928Y-126710000D01*
X172725792Y-126800000D01*
X172716928Y-126890000D01*
X172716928Y-127110000D01*
X172725112Y-127193100D01*
X172717101Y-127299838D01*
X172720000Y-127364250D01*
X172843771Y-127488021D01*
X172903815Y-127561185D01*
X173000506Y-127640537D01*
X173110820Y-127699502D01*
X173230518Y-127735812D01*
X173355000Y-127748072D01*
X173747000Y-127748072D01*
X173747000Y-127777000D01*
X173718000Y-127777000D01*
X173718000Y-128491250D01*
X173876750Y-128650000D01*
X173984000Y-128637748D01*
X174102822Y-128598664D01*
X174211735Y-128537151D01*
X174306555Y-128455571D01*
X174383637Y-128357061D01*
X174440020Y-128245405D01*
X174473537Y-128124896D01*
X174482899Y-128000162D01*
X175517101Y-128000162D01*
X175526463Y-128124896D01*
X175559980Y-128245405D01*
X175616363Y-128357061D01*
X175693445Y-128455571D01*
X175788265Y-128537151D01*
X175897178Y-128598664D01*
X176016000Y-128637748D01*
X176123250Y-128650000D01*
X176282000Y-128491250D01*
X176282000Y-127777000D01*
X176518000Y-127777000D01*
X176518000Y-128491250D01*
X176676750Y-128650000D01*
X176784000Y-128637748D01*
X176902822Y-128598664D01*
X177011735Y-128537151D01*
X177106555Y-128455571D01*
X177183637Y-128357061D01*
X177240020Y-128245405D01*
X177273537Y-128124896D01*
X177282899Y-128000162D01*
X177280000Y-127935750D01*
X177121250Y-127777000D01*
X176518000Y-127777000D01*
X176282000Y-127777000D01*
X175678750Y-127777000D01*
X175520000Y-127935750D01*
X175517101Y-128000162D01*
X174482899Y-128000162D01*
X174480000Y-127935750D01*
X174321252Y-127777002D01*
X174480000Y-127777002D01*
X174480000Y-127672944D01*
X174510242Y-127663770D01*
X174634454Y-127597377D01*
X174743327Y-127508027D01*
X174832677Y-127399154D01*
X174899070Y-127274942D01*
X174939954Y-127140164D01*
X174953759Y-127000000D01*
X174950300Y-126964880D01*
X174950300Y-126635119D01*
X174953759Y-126600000D01*
X174950300Y-126564880D01*
X174950300Y-126515000D01*
X175316928Y-126515000D01*
X175316928Y-126710000D01*
X175325792Y-126800000D01*
X175316928Y-126890000D01*
X175316928Y-127110000D01*
X175329188Y-127234482D01*
X175365498Y-127354180D01*
X175424463Y-127464494D01*
X175503815Y-127561185D01*
X175600506Y-127640537D01*
X175710820Y-127699502D01*
X175830518Y-127735812D01*
X175955000Y-127748072D01*
X176645000Y-127748072D01*
X176769482Y-127735812D01*
X176828798Y-127717819D01*
X176835300Y-127718459D01*
X176870419Y-127715000D01*
X176870420Y-127715000D01*
X176975464Y-127704654D01*
X177110242Y-127663770D01*
X177234454Y-127597377D01*
X177343327Y-127508027D01*
X177432677Y-127399154D01*
X177499070Y-127274942D01*
X177539954Y-127140164D01*
X177553759Y-127000000D01*
X177550300Y-126964880D01*
X177550300Y-126635119D01*
X177553759Y-126600000D01*
X177550300Y-126564880D01*
X177550300Y-126235119D01*
X177553759Y-126200000D01*
X177550300Y-126164880D01*
X177550300Y-125835119D01*
X177553759Y-125800000D01*
X177539954Y-125659836D01*
X177499070Y-125525058D01*
X177432677Y-125400846D01*
X177343327Y-125291973D01*
X177277985Y-125238348D01*
X177274151Y-125199421D01*
X177280000Y-125158750D01*
X177263864Y-125142614D01*
X177234502Y-125045820D01*
X177210010Y-125000000D01*
X177234502Y-124954180D01*
X177263864Y-124857386D01*
X177280000Y-124841250D01*
X177274151Y-124800579D01*
X177283072Y-124710000D01*
X177283072Y-124490000D01*
X177274208Y-124400000D01*
X177283072Y-124310000D01*
X177283072Y-124090000D01*
X177274151Y-123999421D01*
X177280000Y-123958750D01*
X177263864Y-123942614D01*
X177234502Y-123845820D01*
X177210463Y-123800848D01*
X177225125Y-123775689D01*
X177265812Y-123657407D01*
X177266143Y-123655107D01*
X177280000Y-123641250D01*
X177274068Y-123600000D01*
X177280000Y-123558750D01*
X177266143Y-123544893D01*
X177265812Y-123542593D01*
X177225125Y-123424311D01*
X177210958Y-123400000D01*
X177225125Y-123375689D01*
X177265812Y-123257407D01*
X177266143Y-123255107D01*
X177280000Y-123241250D01*
X177274068Y-123200000D01*
X177280000Y-123158750D01*
X177266143Y-123144893D01*
X177265812Y-123142593D01*
X177225125Y-123024311D01*
X177210958Y-123000000D01*
X177225125Y-122975689D01*
X177265812Y-122857407D01*
X177266143Y-122855107D01*
X177280000Y-122841250D01*
X177274068Y-122800000D01*
X177278110Y-122771892D01*
X177333029Y-122760968D01*
X177503189Y-122690486D01*
X177656328Y-122588162D01*
X177786562Y-122457928D01*
X177888886Y-122304789D01*
X177959368Y-122134629D01*
X177995300Y-121953989D01*
X177995300Y-121769811D01*
X177959368Y-121589171D01*
X177900387Y-121446778D01*
X177902986Y-121442889D01*
X177973468Y-121272729D01*
X178009400Y-121092089D01*
X178009400Y-121022584D01*
X178031070Y-120982042D01*
X178071954Y-120847264D01*
X178082300Y-120742220D01*
X178082300Y-120742211D01*
X178085758Y-120707101D01*
X178082300Y-120671991D01*
X178082300Y-66247590D01*
X178093562Y-66236328D01*
X178195886Y-66083189D01*
X178266368Y-65913029D01*
X178302300Y-65732389D01*
X178302300Y-65548211D01*
X178266368Y-65367571D01*
X178195886Y-65197411D01*
X178093562Y-65044272D01*
X177963328Y-64914038D01*
X177810189Y-64811714D01*
X177640029Y-64741232D01*
X177459389Y-64705300D01*
X177275211Y-64705300D01*
X177094571Y-64741232D01*
X176924411Y-64811714D01*
X176771272Y-64914038D01*
X176641038Y-65044272D01*
X176538714Y-65197411D01*
X176468232Y-65367571D01*
X176432300Y-65548211D01*
X176432300Y-65732389D01*
X176468232Y-65913029D01*
X176538714Y-66083189D01*
X176641038Y-66236328D01*
X176652301Y-66247591D01*
X176652301Y-82098938D01*
X150051488Y-55498127D01*
X150055134Y-55495134D01*
X150240706Y-55269014D01*
X150378599Y-55011034D01*
X150463513Y-54731111D01*
X150492185Y-54440000D01*
X150463513Y-54148889D01*
X150378599Y-53868966D01*
X150240706Y-53610986D01*
X150055134Y-53384866D01*
X150025313Y-53360393D01*
X150094180Y-53339502D01*
X150204494Y-53280537D01*
X150301185Y-53201185D01*
X150380537Y-53104494D01*
X150439502Y-52994180D01*
X150475812Y-52874482D01*
X150488072Y-52750000D01*
X150488072Y-51050000D01*
X150475812Y-50925518D01*
X150439502Y-50805820D01*
X150380537Y-50695506D01*
X150301185Y-50598815D01*
X150204494Y-50519463D01*
X150094180Y-50460498D01*
X149974482Y-50424188D01*
X149850000Y-50411928D01*
X148150000Y-50411928D01*
X148025518Y-50424188D01*
X147905820Y-50460498D01*
X147795506Y-50519463D01*
X147698815Y-50598815D01*
X147619463Y-50695506D01*
X147560498Y-50805820D01*
X147539607Y-50874687D01*
X147515134Y-50844866D01*
X147289014Y-50659294D01*
X147031034Y-50521401D01*
X146751111Y-50436487D01*
X146532950Y-50415000D01*
X146387050Y-50415000D01*
X146168889Y-50436487D01*
X145888966Y-50521401D01*
X145630986Y-50659294D01*
X145404866Y-50844866D01*
X145219294Y-51070986D01*
X145081401Y-51328966D01*
X144996487Y-51608889D01*
X144967815Y-51900000D01*
X144996487Y-52191111D01*
X145081401Y-52471034D01*
X145219294Y-52729014D01*
X145404866Y-52955134D01*
X145630986Y-53140706D01*
X145685791Y-53170000D01*
X145630986Y-53199294D01*
X145404866Y-53384866D01*
X145219294Y-53610986D01*
X145081401Y-53868966D01*
X144996487Y-54148889D01*
X144967815Y-54440000D01*
X144996487Y-54731111D01*
X145081401Y-55011034D01*
X145219294Y-55269014D01*
X145404866Y-55495134D01*
X145630986Y-55680706D01*
X145685791Y-55710000D01*
X145630986Y-55739294D01*
X145404866Y-55924866D01*
X145219294Y-56150986D01*
X145081401Y-56408966D01*
X144996487Y-56688889D01*
X144967815Y-56980000D01*
X144996487Y-57271111D01*
X145081401Y-57551034D01*
X145219294Y-57809014D01*
X145404866Y-58035134D01*
X145630986Y-58220706D01*
X145685791Y-58250000D01*
X145630986Y-58279294D01*
X145404866Y-58464866D01*
X145219294Y-58690986D01*
X145081401Y-58948966D01*
X144996487Y-59228889D01*
X144967815Y-59520000D01*
X144996487Y-59811111D01*
X145081401Y-60091034D01*
X145219294Y-60349014D01*
X145404866Y-60575134D01*
X145630986Y-60760706D01*
X145695523Y-60795201D01*
X145578645Y-60864822D01*
X145362412Y-61059731D01*
X145188359Y-61293080D01*
X145063175Y-61555901D01*
X145018524Y-61703110D01*
X145139845Y-61933000D01*
X146333000Y-61933000D01*
X146333000Y-61913000D01*
X146587000Y-61913000D01*
X146587000Y-61933000D01*
X148873000Y-61933000D01*
X148873000Y-61913000D01*
X149127000Y-61913000D01*
X149127000Y-61933000D01*
X150320155Y-61933000D01*
X150441476Y-61703110D01*
X150396825Y-61555901D01*
X150271641Y-61293080D01*
X150097588Y-61059731D01*
X149881355Y-60864822D01*
X149764477Y-60795201D01*
X149829014Y-60760706D01*
X150055134Y-60575134D01*
X150240706Y-60349014D01*
X150265837Y-60301998D01*
X171798800Y-81834963D01*
X171798800Y-92503338D01*
X150033499Y-70738038D01*
X150097588Y-70680269D01*
X150271641Y-70446920D01*
X150396825Y-70184099D01*
X150441476Y-70036890D01*
X150320155Y-69807000D01*
X149127000Y-69807000D01*
X149127000Y-69827000D01*
X148873000Y-69827000D01*
X148873000Y-69807000D01*
X148853000Y-69807000D01*
X148853000Y-69553000D01*
X148873000Y-69553000D01*
X148873000Y-69533000D01*
X149127000Y-69533000D01*
X149127000Y-69553000D01*
X150320155Y-69553000D01*
X150441476Y-69323110D01*
X150396825Y-69175901D01*
X150271641Y-68913080D01*
X150097588Y-68679731D01*
X149881355Y-68484822D01*
X149764477Y-68415201D01*
X149829014Y-68380706D01*
X150055134Y-68195134D01*
X150240706Y-67969014D01*
X150378599Y-67711034D01*
X150463513Y-67431111D01*
X150492185Y-67140000D01*
X150463513Y-66848889D01*
X150378599Y-66568966D01*
X150240706Y-66310986D01*
X150055134Y-66084866D01*
X149829014Y-65899294D01*
X149774209Y-65870000D01*
X149829014Y-65840706D01*
X150055134Y-65655134D01*
X150240706Y-65429014D01*
X150378599Y-65171034D01*
X150463513Y-64891111D01*
X150492185Y-64600000D01*
X150463513Y-64308889D01*
X150378599Y-64028966D01*
X150240706Y-63770986D01*
X150055134Y-63544866D01*
X149829014Y-63359294D01*
X149764477Y-63324799D01*
X149881355Y-63255178D01*
X150097588Y-63060269D01*
X150271641Y-62826920D01*
X150396825Y-62564099D01*
X150441476Y-62416890D01*
X150320155Y-62187000D01*
X149127000Y-62187000D01*
X149127000Y-62207000D01*
X148873000Y-62207000D01*
X148873000Y-62187000D01*
X146587000Y-62187000D01*
X146587000Y-62207000D01*
X146333000Y-62207000D01*
X146333000Y-62187000D01*
X145139845Y-62187000D01*
X145018524Y-62416890D01*
X145063175Y-62564099D01*
X145188359Y-62826920D01*
X145362412Y-63060269D01*
X145578645Y-63255178D01*
X145695523Y-63324799D01*
X145630986Y-63359294D01*
X145404866Y-63544866D01*
X145219294Y-63770986D01*
X145081401Y-64028966D01*
X144996487Y-64308889D01*
X144967815Y-64600000D01*
X144996487Y-64891111D01*
X145081401Y-65171034D01*
X145219294Y-65429014D01*
X145404866Y-65655134D01*
X145630986Y-65840706D01*
X145685791Y-65870000D01*
X145630986Y-65899294D01*
X145404866Y-66084866D01*
X145219294Y-66310986D01*
X145081401Y-66568966D01*
X144996487Y-66848889D01*
X144967815Y-67140000D01*
X144996487Y-67431111D01*
X145081401Y-67711034D01*
X145219294Y-67969014D01*
X145404866Y-68195134D01*
X145630986Y-68380706D01*
X145695523Y-68415201D01*
X145578645Y-68484822D01*
X145362412Y-68679731D01*
X145188359Y-68913080D01*
X145063175Y-69175901D01*
X145018524Y-69323110D01*
X145139845Y-69553000D01*
X146333000Y-69553000D01*
X146333000Y-69533000D01*
X146587000Y-69533000D01*
X146587000Y-69553000D01*
X146607000Y-69553000D01*
X146607000Y-69807000D01*
X146587000Y-69807000D01*
X146587000Y-69827000D01*
X146333000Y-69827000D01*
X146333000Y-69807000D01*
X145139845Y-69807000D01*
X145018524Y-70036890D01*
X145063175Y-70184099D01*
X145188359Y-70446920D01*
X145362412Y-70680269D01*
X145578645Y-70875178D01*
X145695523Y-70944799D01*
X145630986Y-70979294D01*
X145404866Y-71164866D01*
X145219294Y-71390986D01*
X145081401Y-71648966D01*
X144996487Y-71928889D01*
X144967815Y-72220000D01*
X144996487Y-72511111D01*
X145081401Y-72791034D01*
X145219294Y-73049014D01*
X145404866Y-73275134D01*
X145420869Y-73288268D01*
X134332655Y-84376484D01*
X134305374Y-84398873D01*
X134282986Y-84426153D01*
X134216024Y-84507746D01*
X134149631Y-84631958D01*
X134108747Y-84766736D01*
X134094942Y-84906900D01*
X134098401Y-84942020D01*
X134098400Y-115976378D01*
X134050371Y-115985932D01*
X133880211Y-116056414D01*
X133727072Y-116158738D01*
X133715810Y-116170000D01*
X132060509Y-116170000D01*
X132025399Y-116166542D01*
X131990289Y-116170000D01*
X131990280Y-116170000D01*
X131885236Y-116180346D01*
X131750458Y-116221230D01*
X131750456Y-116221231D01*
X131626244Y-116287624D01*
X131544651Y-116354586D01*
X131544648Y-116354589D01*
X131517373Y-116376973D01*
X131494988Y-116404249D01*
X128787439Y-119111800D01*
X128771511Y-119111800D01*
X128590871Y-119147732D01*
X128420711Y-119218214D01*
X128267572Y-119320538D01*
X128137338Y-119450772D01*
X128119187Y-119477937D01*
X127966250Y-119325000D01*
X128125000Y-119166250D01*
X128108302Y-119057399D01*
X128084088Y-118990597D01*
X128093469Y-118971292D01*
X128125142Y-118850285D01*
X128130000Y-118781750D01*
X127971250Y-118623000D01*
X127723111Y-118623000D01*
X127702470Y-118613342D01*
X127588619Y-118585325D01*
X127587018Y-118580044D01*
X127714762Y-118452300D01*
X127730689Y-118452300D01*
X127911329Y-118416368D01*
X128081489Y-118345886D01*
X128234628Y-118243562D01*
X128364862Y-118113328D01*
X128467186Y-117960189D01*
X128537668Y-117790029D01*
X128573600Y-117609389D01*
X128573600Y-117425211D01*
X128537668Y-117244571D01*
X128467186Y-117074411D01*
X128364862Y-116921272D01*
X128234628Y-116791038D01*
X128081489Y-116688714D01*
X127911329Y-116618232D01*
X127861400Y-116608300D01*
X127861400Y-116188290D01*
X127872662Y-116177028D01*
X127974986Y-116023889D01*
X128045468Y-115853729D01*
X128081400Y-115673089D01*
X128081400Y-115488911D01*
X128045468Y-115308271D01*
X127974986Y-115138111D01*
X127872662Y-114984972D01*
X127742428Y-114854738D01*
X127589289Y-114752414D01*
X127419129Y-114681932D01*
X127238489Y-114646000D01*
X127054311Y-114646000D01*
X126873671Y-114681932D01*
X126703511Y-114752414D01*
X126550372Y-114854738D01*
X126420138Y-114984972D01*
X126317814Y-115138111D01*
X126247332Y-115308271D01*
X126211400Y-115488911D01*
X126211400Y-115673089D01*
X126247332Y-115853729D01*
X126276443Y-115924010D01*
X126198211Y-115956414D01*
X126045072Y-116058738D01*
X125914838Y-116188972D01*
X125812514Y-116342111D01*
X125742032Y-116512271D01*
X125729504Y-116575254D01*
X125714250Y-116560000D01*
X125568179Y-116557187D01*
X125443398Y-116565896D01*
X125322714Y-116598781D01*
X125210765Y-116654578D01*
X125111852Y-116731144D01*
X125029777Y-116825535D01*
X124967694Y-116934125D01*
X124927989Y-117052739D01*
X124915000Y-117151250D01*
X125073750Y-117310000D01*
X124969364Y-117414386D01*
X124967739Y-117414709D01*
X124955686Y-117385611D01*
X124853362Y-117232472D01*
X124723128Y-117102238D01*
X124569989Y-116999914D01*
X124399829Y-116929432D01*
X124219189Y-116893500D01*
X124035011Y-116893500D01*
X123854371Y-116929432D01*
X123684211Y-116999914D01*
X123531072Y-117102238D01*
X123400838Y-117232472D01*
X123298514Y-117385611D01*
X123228032Y-117555771D01*
X123192100Y-117736411D01*
X123192100Y-117920589D01*
X123228032Y-118101229D01*
X123298514Y-118271389D01*
X123400838Y-118424528D01*
X123412101Y-118435791D01*
X123412100Y-122455090D01*
X123408642Y-122490200D01*
X123412100Y-122525310D01*
X123412100Y-122525319D01*
X123422446Y-122630363D01*
X123463330Y-122765141D01*
X123529723Y-122889353D01*
X123619073Y-122998226D01*
X123646355Y-123020616D01*
X123768607Y-123142868D01*
X123611625Y-123142868D01*
X123599206Y-123136230D01*
X123540804Y-123118514D01*
X123496028Y-123073738D01*
X123342889Y-122971414D01*
X123172729Y-122900932D01*
X122992089Y-122865000D01*
X122807911Y-122865000D01*
X122627271Y-122900932D01*
X122457111Y-122971414D01*
X122303972Y-123073738D01*
X122173738Y-123203972D01*
X122071414Y-123357111D01*
X122000932Y-123527271D01*
X121965000Y-123707911D01*
X105660000Y-123707911D01*
X105660000Y-41789721D01*
X105865000Y-41789721D01*
X105865000Y-42210279D01*
X105947047Y-42622756D01*
X106107988Y-43011302D01*
X106341637Y-43360983D01*
X106639017Y-43658363D01*
X106988698Y-43892012D01*
X107377244Y-44052953D01*
X107789721Y-44135000D01*
X108210279Y-44135000D01*
X108622756Y-44052953D01*
X109011302Y-43892012D01*
X109360983Y-43658363D01*
X109658363Y-43360983D01*
X109892012Y-43011302D01*
X110052953Y-42622756D01*
X110135000Y-42210279D01*
X110135000Y-41789721D01*
X189865000Y-41789721D01*
X189865000Y-42210279D01*
X189947047Y-42622756D01*
X190107988Y-43011302D01*
X190341637Y-43360983D01*
X190639017Y-43658363D01*
X190988698Y-43892012D01*
X191377244Y-44052953D01*
X191789721Y-44135000D01*
X192210279Y-44135000D01*
X192622756Y-44052953D01*
X193011302Y-43892012D01*
X193360983Y-43658363D01*
X193658363Y-43360983D01*
X193892012Y-43011302D01*
X194052953Y-42622756D01*
X194135000Y-42210279D01*
X194135000Y-41789721D01*
X194052953Y-41377244D01*
X193892012Y-40988698D01*
X193658363Y-40639017D01*
X193360983Y-40341637D01*
X193011302Y-40107988D01*
X192622756Y-39947047D01*
X192210279Y-39865000D01*
X191789721Y-39865000D01*
X191377244Y-39947047D01*
X190988698Y-40107988D01*
X190639017Y-40341637D01*
X190341637Y-40639017D01*
X190107988Y-40988698D01*
X189947047Y-41377244D01*
X189865000Y-41789721D01*
X110135000Y-41789721D01*
X110052953Y-41377244D01*
X109892012Y-40988698D01*
X109658363Y-40639017D01*
X109360983Y-40341637D01*
X109011302Y-40107988D01*
X108622756Y-39947047D01*
X108210279Y-39865000D01*
X107789721Y-39865000D01*
X107377244Y-39947047D01*
X106988698Y-40107988D01*
X106639017Y-40341637D01*
X106341637Y-40639017D01*
X106107988Y-40988698D01*
X105947047Y-41377244D01*
X105865000Y-41789721D01*
X105660000Y-41789721D01*
X105660000Y-39660000D01*
X194340001Y-39660000D01*
X194340000Y-138340000D01*
X194340000Y-138340000D01*
G37*
X194340000Y-138340000D02*
X105660000Y-138340000D01*
X105660000Y-135789721D01*
X105865000Y-135789721D01*
X105865000Y-136210279D01*
X105947047Y-136622756D01*
X106107988Y-137011302D01*
X106341637Y-137360983D01*
X106639017Y-137658363D01*
X106988698Y-137892012D01*
X107377244Y-138052953D01*
X107789721Y-138135000D01*
X108210279Y-138135000D01*
X108622756Y-138052953D01*
X109011302Y-137892012D01*
X109360983Y-137658363D01*
X109658363Y-137360983D01*
X109892012Y-137011302D01*
X110052953Y-136622756D01*
X110135000Y-136210279D01*
X110135000Y-135858665D01*
X146815000Y-135858665D01*
X146815000Y-136141335D01*
X146870147Y-136418574D01*
X146978320Y-136679727D01*
X147135363Y-136914759D01*
X147335241Y-137114637D01*
X147570273Y-137271680D01*
X147831426Y-137379853D01*
X148108665Y-137435000D01*
X148391335Y-137435000D01*
X148668574Y-137379853D01*
X148929727Y-137271680D01*
X149164759Y-137114637D01*
X149364637Y-136914759D01*
X149521680Y-136679727D01*
X149629853Y-136418574D01*
X149685000Y-136141335D01*
X149685000Y-135858665D01*
X149671287Y-135789721D01*
X189865000Y-135789721D01*
X189865000Y-136210279D01*
X189947047Y-136622756D01*
X190107988Y-137011302D01*
X190341637Y-137360983D01*
X190639017Y-137658363D01*
X190988698Y-137892012D01*
X191377244Y-138052953D01*
X191789721Y-138135000D01*
X192210279Y-138135000D01*
X192622756Y-138052953D01*
X193011302Y-137892012D01*
X193360983Y-137658363D01*
X193658363Y-137360983D01*
X193892012Y-137011302D01*
X194052953Y-136622756D01*
X194135000Y-136210279D01*
X194135000Y-135789721D01*
X194052953Y-135377244D01*
X193892012Y-134988698D01*
X193658363Y-134639017D01*
X193360983Y-134341637D01*
X193011302Y-134107988D01*
X192622756Y-133947047D01*
X192210279Y-133865000D01*
X191789721Y-133865000D01*
X191377244Y-133947047D01*
X190988698Y-134107988D01*
X190639017Y-134341637D01*
X190341637Y-134639017D01*
X190107988Y-134988698D01*
X189947047Y-135377244D01*
X189865000Y-135789721D01*
X149671287Y-135789721D01*
X149629853Y-135581426D01*
X149521680Y-135320273D01*
X149364637Y-135085241D01*
X149164759Y-134885363D01*
X148929727Y-134728320D01*
X148668574Y-134620147D01*
X148391335Y-134565000D01*
X148108665Y-134565000D01*
X147831426Y-134620147D01*
X147570273Y-134728320D01*
X147335241Y-134885363D01*
X147135363Y-135085241D01*
X146978320Y-135320273D01*
X146870147Y-135581426D01*
X146815000Y-135858665D01*
X110135000Y-135858665D01*
X110135000Y-135789721D01*
X110052953Y-135377244D01*
X109892012Y-134988698D01*
X109658363Y-134639017D01*
X109360983Y-134341637D01*
X109011302Y-134107988D01*
X108732977Y-133992702D01*
X147436903Y-133992702D01*
X147508486Y-134236671D01*
X147763996Y-134357571D01*
X148038184Y-134426300D01*
X148320512Y-134440217D01*
X148600130Y-134398787D01*
X148866292Y-134303603D01*
X148991514Y-134236671D01*
X149063097Y-133992702D01*
X148250000Y-133179605D01*
X147436903Y-133992702D01*
X108732977Y-133992702D01*
X108622756Y-133947047D01*
X108210279Y-133865000D01*
X107789721Y-133865000D01*
X107377244Y-133947047D01*
X106988698Y-134107988D01*
X106639017Y-134341637D01*
X106341637Y-134639017D01*
X106107988Y-134988698D01*
X105947047Y-135377244D01*
X105865000Y-135789721D01*
X105660000Y-135789721D01*
X105660000Y-133070512D01*
X146809783Y-133070512D01*
X146851213Y-133350130D01*
X146946397Y-133616292D01*
X147013329Y-133741514D01*
X147257298Y-133813097D01*
X148070395Y-133000000D01*
X148429605Y-133000000D01*
X149242702Y-133813097D01*
X149486671Y-133741514D01*
X149607571Y-133486004D01*
X149676300Y-133211816D01*
X149690217Y-132929488D01*
X149648787Y-132649870D01*
X149553603Y-132383708D01*
X149486671Y-132258486D01*
X149242702Y-132186903D01*
X148429605Y-133000000D01*
X148070395Y-133000000D01*
X147257298Y-132186903D01*
X147013329Y-132258486D01*
X146892429Y-132513996D01*
X146823700Y-132788184D01*
X146809783Y-133070512D01*
X105660000Y-133070512D01*
X105660000Y-132007298D01*
X147436903Y-132007298D01*
X148250000Y-132820395D01*
X149063097Y-132007298D01*
X148991514Y-131763329D01*
X148736004Y-131642429D01*
X148461816Y-131573700D01*
X148179488Y-131559783D01*
X147899870Y-131601213D01*
X147633708Y-131696397D01*
X147508486Y-131763329D01*
X147436903Y-132007298D01*
X105660000Y-132007298D01*
X105660000Y-123707911D01*
X121965000Y-123707911D01*
X121965000Y-123892089D01*
X122000932Y-124072729D01*
X122071414Y-124242889D01*
X122173738Y-124396028D01*
X122303972Y-124526262D01*
X122457111Y-124628586D01*
X122627271Y-124699068D01*
X122807911Y-124735000D01*
X122992089Y-124735000D01*
X123172729Y-124699068D01*
X123342889Y-124628586D01*
X123426277Y-124572868D01*
X123860000Y-124572868D01*
X123860000Y-124697002D01*
X123891748Y-124697002D01*
X123860000Y-124728750D01*
X123876698Y-124837601D01*
X123919324Y-124955197D01*
X123984074Y-125062218D01*
X124009034Y-125089529D01*
X123974074Y-125127782D01*
X123909324Y-125234803D01*
X123866698Y-125352399D01*
X123850000Y-125461250D01*
X124008750Y-125620000D01*
X123850000Y-125778750D01*
X123866698Y-125887601D01*
X123909324Y-126005197D01*
X123974074Y-126112218D01*
X124009034Y-126150471D01*
X123984074Y-126177782D01*
X123919324Y-126284803D01*
X123876698Y-126402399D01*
X123860000Y-126511250D01*
X124018750Y-126670000D01*
X123860000Y-126828750D01*
X123876698Y-126937601D01*
X123904087Y-127013160D01*
X123896531Y-127028708D01*
X123864858Y-127149715D01*
X123860000Y-127218250D01*
X124018750Y-127377000D01*
X124272575Y-127377000D01*
X124282530Y-127381658D01*
X124403990Y-127411548D01*
X124410548Y-127411930D01*
X124435498Y-127494180D01*
X124467800Y-127554611D01*
X124470346Y-127580464D01*
X124483249Y-127623000D01*
X124018750Y-127623000D01*
X123860000Y-127781750D01*
X123864858Y-127850285D01*
X123896531Y-127971292D01*
X123951202Y-128083796D01*
X124026771Y-128183472D01*
X124120334Y-128266490D01*
X124228295Y-128329659D01*
X124346506Y-128370552D01*
X124451250Y-128385000D01*
X124610000Y-128226250D01*
X124768750Y-128385000D01*
X124873494Y-128370552D01*
X124958669Y-128341087D01*
X124927989Y-128432739D01*
X124915000Y-128531250D01*
X125073750Y-128690000D01*
X124915000Y-128848750D01*
X124927989Y-128947261D01*
X124967694Y-129065875D01*
X125029777Y-129174465D01*
X125111852Y-129268856D01*
X125210765Y-129345422D01*
X125322714Y-129401219D01*
X125443398Y-129434104D01*
X125568179Y-129442813D01*
X125714250Y-129440000D01*
X125873000Y-129281250D01*
X125873000Y-128952589D01*
X125944180Y-128959600D01*
X125944190Y-128959600D01*
X125979300Y-128963058D01*
X126014410Y-128959600D01*
X126127000Y-128959600D01*
X126127000Y-129281250D01*
X126285750Y-129440000D01*
X126431821Y-129442813D01*
X126556602Y-129434104D01*
X126677286Y-129401219D01*
X126789235Y-129345422D01*
X126888148Y-129268856D01*
X126970223Y-129174465D01*
X127032306Y-129065875D01*
X127067881Y-128959600D01*
X132844790Y-128959600D01*
X132879900Y-128963058D01*
X132915010Y-128959600D01*
X132915020Y-128959600D01*
X133020064Y-128949254D01*
X133154842Y-128908370D01*
X133279054Y-128841977D01*
X133387927Y-128752627D01*
X133410320Y-128725341D01*
X136805047Y-125330616D01*
X136880750Y-125338072D01*
X137368250Y-125338072D01*
X137540285Y-125321128D01*
X137705709Y-125270947D01*
X137858164Y-125189458D01*
X137991792Y-125079792D01*
X138062000Y-124994244D01*
X138132208Y-125079792D01*
X138265836Y-125189458D01*
X138418291Y-125270947D01*
X138583715Y-125321128D01*
X138755750Y-125338072D01*
X139243250Y-125338072D01*
X139415285Y-125321128D01*
X139580709Y-125270947D01*
X139733164Y-125189458D01*
X139866792Y-125079792D01*
X139976458Y-124946164D01*
X140057947Y-124793709D01*
X140081823Y-124715000D01*
X143042177Y-124715000D01*
X143066053Y-124793709D01*
X143147542Y-124946164D01*
X143257208Y-125079792D01*
X143390836Y-125189458D01*
X143543291Y-125270947D01*
X143708715Y-125321128D01*
X143880750Y-125338072D01*
X144368250Y-125338072D01*
X144540285Y-125321128D01*
X144705709Y-125270947D01*
X144858164Y-125189458D01*
X144991792Y-125079792D01*
X145062000Y-124994244D01*
X145132208Y-125079792D01*
X145265836Y-125189458D01*
X145284501Y-125199434D01*
X145284500Y-127714390D01*
X145281042Y-127749500D01*
X145284500Y-127784610D01*
X145284500Y-127784619D01*
X145294846Y-127889663D01*
X145335730Y-128024441D01*
X145402123Y-128148653D01*
X145491473Y-128257526D01*
X145518755Y-128279916D01*
X146861871Y-129623033D01*
X146815000Y-129858665D01*
X146815000Y-130141335D01*
X146870147Y-130418574D01*
X146978320Y-130679727D01*
X147135363Y-130914759D01*
X147335241Y-131114637D01*
X147570273Y-131271680D01*
X147831426Y-131379853D01*
X148108665Y-131435000D01*
X148391335Y-131435000D01*
X148668574Y-131379853D01*
X148929727Y-131271680D01*
X149164759Y-131114637D01*
X149364637Y-130914759D01*
X149521680Y-130679727D01*
X149629853Y-130418574D01*
X149685000Y-130141335D01*
X149685000Y-129858665D01*
X149629853Y-129581426D01*
X149521680Y-129320273D01*
X149364637Y-129085241D01*
X149164759Y-128885363D01*
X148929727Y-128728320D01*
X148668574Y-128620147D01*
X148391335Y-128565000D01*
X148108665Y-128565000D01*
X147873033Y-128611871D01*
X147261324Y-128000162D01*
X172717101Y-128000162D01*
X172726463Y-128124896D01*
X172759980Y-128245405D01*
X172816363Y-128357061D01*
X172893445Y-128455571D01*
X172988265Y-128537151D01*
X173097178Y-128598664D01*
X173216000Y-128637748D01*
X173323250Y-128650000D01*
X173482000Y-128491250D01*
X173482000Y-127777000D01*
X172878750Y-127777000D01*
X172720000Y-127935750D01*
X172717101Y-128000162D01*
X147261324Y-128000162D01*
X146714500Y-127453339D01*
X146714500Y-125199434D01*
X146733164Y-125189458D01*
X146866792Y-125079792D01*
X146976458Y-124946164D01*
X147057947Y-124793709D01*
X147108128Y-124628285D01*
X147125072Y-124456250D01*
X147125072Y-123543750D01*
X147108128Y-123371715D01*
X147057947Y-123206291D01*
X146976458Y-123053836D01*
X146920276Y-122985378D01*
X146952458Y-122946164D01*
X147033947Y-122793709D01*
X147084128Y-122628285D01*
X147101072Y-122456250D01*
X147101072Y-121543750D01*
X147084128Y-121371715D01*
X147033947Y-121206291D01*
X146952458Y-121053836D01*
X146908276Y-121000000D01*
X146952458Y-120946164D01*
X147033947Y-120793709D01*
X147084128Y-120628285D01*
X147101072Y-120456250D01*
X147101072Y-119543750D01*
X147084128Y-119371715D01*
X147033947Y-119206291D01*
X146952458Y-119053836D01*
X146842792Y-118920208D01*
X146709164Y-118810542D01*
X146556709Y-118729053D01*
X146391285Y-118678872D01*
X146219250Y-118661928D01*
X145731750Y-118661928D01*
X145559715Y-118678872D01*
X145394291Y-118729053D01*
X145241836Y-118810542D01*
X145108208Y-118920208D01*
X145038000Y-119005756D01*
X144967792Y-118920208D01*
X144834164Y-118810542D01*
X144681709Y-118729053D01*
X144516285Y-118678872D01*
X144344250Y-118661928D01*
X143856750Y-118661928D01*
X143684715Y-118678872D01*
X143519291Y-118729053D01*
X143366836Y-118810542D01*
X143233208Y-118920208D01*
X143123542Y-119053836D01*
X143042053Y-119206291D01*
X143018177Y-119285000D01*
X140019823Y-119285000D01*
X139995947Y-119206291D01*
X139914458Y-119053836D01*
X139804792Y-118920208D01*
X139671164Y-118810542D01*
X139518709Y-118729053D01*
X139353285Y-118678872D01*
X139181250Y-118661928D01*
X138777000Y-118661928D01*
X138777000Y-114592261D01*
X145066698Y-108302564D01*
X145081401Y-108351034D01*
X145219294Y-108609014D01*
X145404866Y-108835134D01*
X145630986Y-109020706D01*
X145888966Y-109158599D01*
X146168889Y-109243513D01*
X146387050Y-109265000D01*
X146532950Y-109265000D01*
X146751111Y-109243513D01*
X147031034Y-109158599D01*
X147289014Y-109020706D01*
X147515134Y-108835134D01*
X147528269Y-108819130D01*
X164189889Y-125480752D01*
X164212273Y-125508027D01*
X164239548Y-125530411D01*
X164239552Y-125530415D01*
X164277046Y-125561185D01*
X164321146Y-125597377D01*
X164445358Y-125663770D01*
X164531828Y-125690000D01*
X164580135Y-125704654D01*
X164592248Y-125705847D01*
X164685180Y-125715000D01*
X164685188Y-125715000D01*
X164720300Y-125718458D01*
X164755412Y-125715000D01*
X172716928Y-125715000D01*
X172716928Y-125910000D01*
X172725792Y-126000000D01*
X172716928Y-126090000D01*
X172716928Y-126310000D01*
X172725792Y-126400000D01*
X172716928Y-126490000D01*
X172716928Y-126710000D01*
X172725792Y-126800000D01*
X172716928Y-126890000D01*
X172716928Y-127110000D01*
X172725112Y-127193100D01*
X172717101Y-127299838D01*
X172720000Y-127364250D01*
X172843771Y-127488021D01*
X172903815Y-127561185D01*
X173000506Y-127640537D01*
X173110820Y-127699502D01*
X173230518Y-127735812D01*
X173355000Y-127748072D01*
X173747000Y-127748072D01*
X173747000Y-127777000D01*
X173718000Y-127777000D01*
X173718000Y-128491250D01*
X173876750Y-128650000D01*
X173984000Y-128637748D01*
X174102822Y-128598664D01*
X174211735Y-128537151D01*
X174306555Y-128455571D01*
X174383637Y-128357061D01*
X174440020Y-128245405D01*
X174473537Y-128124896D01*
X174482899Y-128000162D01*
X175517101Y-128000162D01*
X175526463Y-128124896D01*
X175559980Y-128245405D01*
X175616363Y-128357061D01*
X175693445Y-128455571D01*
X175788265Y-128537151D01*
X175897178Y-128598664D01*
X176016000Y-128637748D01*
X176123250Y-128650000D01*
X176282000Y-128491250D01*
X176282000Y-127777000D01*
X176518000Y-127777000D01*
X176518000Y-128491250D01*
X176676750Y-128650000D01*
X176784000Y-128637748D01*
X176902822Y-128598664D01*
X177011735Y-128537151D01*
X177106555Y-128455571D01*
X177183637Y-128357061D01*
X177240020Y-128245405D01*
X177273537Y-128124896D01*
X177282899Y-128000162D01*
X177280000Y-127935750D01*
X177121250Y-127777000D01*
X176518000Y-127777000D01*
X176282000Y-127777000D01*
X175678750Y-127777000D01*
X175520000Y-127935750D01*
X175517101Y-128000162D01*
X174482899Y-128000162D01*
X174480000Y-127935750D01*
X174321252Y-127777002D01*
X174480000Y-127777002D01*
X174480000Y-127672944D01*
X174510242Y-127663770D01*
X174634454Y-127597377D01*
X174743327Y-127508027D01*
X174832677Y-127399154D01*
X174899070Y-127274942D01*
X174939954Y-127140164D01*
X174953759Y-127000000D01*
X174950300Y-126964880D01*
X174950300Y-126635119D01*
X174953759Y-126600000D01*
X174950300Y-126564880D01*
X174950300Y-126515000D01*
X175316928Y-126515000D01*
X175316928Y-126710000D01*
X175325792Y-126800000D01*
X175316928Y-126890000D01*
X175316928Y-127110000D01*
X175329188Y-127234482D01*
X175365498Y-127354180D01*
X175424463Y-127464494D01*
X175503815Y-127561185D01*
X175600506Y-127640537D01*
X175710820Y-127699502D01*
X175830518Y-127735812D01*
X175955000Y-127748072D01*
X176645000Y-127748072D01*
X176769482Y-127735812D01*
X176828798Y-127717819D01*
X176835300Y-127718459D01*
X176870419Y-127715000D01*
X176870420Y-127715000D01*
X176975464Y-127704654D01*
X177110242Y-127663770D01*
X177234454Y-127597377D01*
X177343327Y-127508027D01*
X177432677Y-127399154D01*
X177499070Y-127274942D01*
X177539954Y-127140164D01*
X177553759Y-127000000D01*
X177550300Y-126964880D01*
X177550300Y-126635119D01*
X177553759Y-126600000D01*
X177550300Y-126564880D01*
X177550300Y-126235119D01*
X177553759Y-126200000D01*
X177550300Y-126164880D01*
X177550300Y-125835119D01*
X177553759Y-125800000D01*
X177539954Y-125659836D01*
X177499070Y-125525058D01*
X177432677Y-125400846D01*
X177343327Y-125291973D01*
X177277985Y-125238348D01*
X177274151Y-125199421D01*
X177280000Y-125158750D01*
X177263864Y-125142614D01*
X177234502Y-125045820D01*
X177210010Y-125000000D01*
X177234502Y-124954180D01*
X177263864Y-124857386D01*
X177280000Y-124841250D01*
X177274151Y-124800579D01*
X177283072Y-124710000D01*
X177283072Y-124490000D01*
X177274208Y-124400000D01*
X177283072Y-124310000D01*
X177283072Y-124090000D01*
X177274151Y-123999421D01*
X177280000Y-123958750D01*
X177263864Y-123942614D01*
X177234502Y-123845820D01*
X177210463Y-123800848D01*
X177225125Y-123775689D01*
X177265812Y-123657407D01*
X177266143Y-123655107D01*
X177280000Y-123641250D01*
X177274068Y-123600000D01*
X177280000Y-123558750D01*
X177266143Y-123544893D01*
X177265812Y-123542593D01*
X177225125Y-123424311D01*
X177210958Y-123400000D01*
X177225125Y-123375689D01*
X177265812Y-123257407D01*
X177266143Y-123255107D01*
X177280000Y-123241250D01*
X177274068Y-123200000D01*
X177280000Y-123158750D01*
X177266143Y-123144893D01*
X177265812Y-123142593D01*
X177225125Y-123024311D01*
X177210958Y-123000000D01*
X177225125Y-122975689D01*
X177265812Y-122857407D01*
X177266143Y-122855107D01*
X177280000Y-122841250D01*
X177274068Y-122800000D01*
X177278110Y-122771892D01*
X177333029Y-122760968D01*
X177503189Y-122690486D01*
X177656328Y-122588162D01*
X177786562Y-122457928D01*
X177888886Y-122304789D01*
X177959368Y-122134629D01*
X177995300Y-121953989D01*
X177995300Y-121769811D01*
X177959368Y-121589171D01*
X177900387Y-121446778D01*
X177902986Y-121442889D01*
X177973468Y-121272729D01*
X178009400Y-121092089D01*
X178009400Y-121022584D01*
X178031070Y-120982042D01*
X178071954Y-120847264D01*
X178082300Y-120742220D01*
X178082300Y-120742211D01*
X178085758Y-120707101D01*
X178082300Y-120671991D01*
X178082300Y-66247590D01*
X178093562Y-66236328D01*
X178195886Y-66083189D01*
X178266368Y-65913029D01*
X178302300Y-65732389D01*
X178302300Y-65548211D01*
X178266368Y-65367571D01*
X178195886Y-65197411D01*
X178093562Y-65044272D01*
X177963328Y-64914038D01*
X177810189Y-64811714D01*
X177640029Y-64741232D01*
X177459389Y-64705300D01*
X177275211Y-64705300D01*
X177094571Y-64741232D01*
X176924411Y-64811714D01*
X176771272Y-64914038D01*
X176641038Y-65044272D01*
X176538714Y-65197411D01*
X176468232Y-65367571D01*
X176432300Y-65548211D01*
X176432300Y-65732389D01*
X176468232Y-65913029D01*
X176538714Y-66083189D01*
X176641038Y-66236328D01*
X176652301Y-66247591D01*
X176652301Y-82098938D01*
X150051488Y-55498127D01*
X150055134Y-55495134D01*
X150240706Y-55269014D01*
X150378599Y-55011034D01*
X150463513Y-54731111D01*
X150492185Y-54440000D01*
X150463513Y-54148889D01*
X150378599Y-53868966D01*
X150240706Y-53610986D01*
X150055134Y-53384866D01*
X150025313Y-53360393D01*
X150094180Y-53339502D01*
X150204494Y-53280537D01*
X150301185Y-53201185D01*
X150380537Y-53104494D01*
X150439502Y-52994180D01*
X150475812Y-52874482D01*
X150488072Y-52750000D01*
X150488072Y-51050000D01*
X150475812Y-50925518D01*
X150439502Y-50805820D01*
X150380537Y-50695506D01*
X150301185Y-50598815D01*
X150204494Y-50519463D01*
X150094180Y-50460498D01*
X149974482Y-50424188D01*
X149850000Y-50411928D01*
X148150000Y-50411928D01*
X148025518Y-50424188D01*
X147905820Y-50460498D01*
X147795506Y-50519463D01*
X147698815Y-50598815D01*
X147619463Y-50695506D01*
X147560498Y-50805820D01*
X147539607Y-50874687D01*
X147515134Y-50844866D01*
X147289014Y-50659294D01*
X147031034Y-50521401D01*
X146751111Y-50436487D01*
X146532950Y-50415000D01*
X146387050Y-50415000D01*
X146168889Y-50436487D01*
X145888966Y-50521401D01*
X145630986Y-50659294D01*
X145404866Y-50844866D01*
X145219294Y-51070986D01*
X145081401Y-51328966D01*
X144996487Y-51608889D01*
X144967815Y-51900000D01*
X144996487Y-52191111D01*
X145081401Y-52471034D01*
X145219294Y-52729014D01*
X145404866Y-52955134D01*
X145630986Y-53140706D01*
X145685791Y-53170000D01*
X145630986Y-53199294D01*
X145404866Y-53384866D01*
X145219294Y-53610986D01*
X145081401Y-53868966D01*
X144996487Y-54148889D01*
X144967815Y-54440000D01*
X144996487Y-54731111D01*
X145081401Y-55011034D01*
X145219294Y-55269014D01*
X145404866Y-55495134D01*
X145630986Y-55680706D01*
X145685791Y-55710000D01*
X145630986Y-55739294D01*
X145404866Y-55924866D01*
X145219294Y-56150986D01*
X145081401Y-56408966D01*
X144996487Y-56688889D01*
X144967815Y-56980000D01*
X144996487Y-57271111D01*
X145081401Y-57551034D01*
X145219294Y-57809014D01*
X145404866Y-58035134D01*
X145630986Y-58220706D01*
X145685791Y-58250000D01*
X145630986Y-58279294D01*
X145404866Y-58464866D01*
X145219294Y-58690986D01*
X145081401Y-58948966D01*
X144996487Y-59228889D01*
X144967815Y-59520000D01*
X144996487Y-59811111D01*
X145081401Y-60091034D01*
X145219294Y-60349014D01*
X145404866Y-60575134D01*
X145630986Y-60760706D01*
X145695523Y-60795201D01*
X145578645Y-60864822D01*
X145362412Y-61059731D01*
X145188359Y-61293080D01*
X145063175Y-61555901D01*
X145018524Y-61703110D01*
X145139845Y-61933000D01*
X146333000Y-61933000D01*
X146333000Y-61913000D01*
X146587000Y-61913000D01*
X146587000Y-61933000D01*
X148873000Y-61933000D01*
X148873000Y-61913000D01*
X149127000Y-61913000D01*
X149127000Y-61933000D01*
X150320155Y-61933000D01*
X150441476Y-61703110D01*
X150396825Y-61555901D01*
X150271641Y-61293080D01*
X150097588Y-61059731D01*
X149881355Y-60864822D01*
X149764477Y-60795201D01*
X149829014Y-60760706D01*
X150055134Y-60575134D01*
X150240706Y-60349014D01*
X150265837Y-60301998D01*
X171798800Y-81834963D01*
X171798800Y-92503338D01*
X150033499Y-70738038D01*
X150097588Y-70680269D01*
X150271641Y-70446920D01*
X150396825Y-70184099D01*
X150441476Y-70036890D01*
X150320155Y-69807000D01*
X149127000Y-69807000D01*
X149127000Y-69827000D01*
X148873000Y-69827000D01*
X148873000Y-69807000D01*
X148853000Y-69807000D01*
X148853000Y-69553000D01*
X148873000Y-69553000D01*
X148873000Y-69533000D01*
X149127000Y-69533000D01*
X149127000Y-69553000D01*
X150320155Y-69553000D01*
X150441476Y-69323110D01*
X150396825Y-69175901D01*
X150271641Y-68913080D01*
X150097588Y-68679731D01*
X149881355Y-68484822D01*
X149764477Y-68415201D01*
X149829014Y-68380706D01*
X150055134Y-68195134D01*
X150240706Y-67969014D01*
X150378599Y-67711034D01*
X150463513Y-67431111D01*
X150492185Y-67140000D01*
X150463513Y-66848889D01*
X150378599Y-66568966D01*
X150240706Y-66310986D01*
X150055134Y-66084866D01*
X149829014Y-65899294D01*
X149774209Y-65870000D01*
X149829014Y-65840706D01*
X150055134Y-65655134D01*
X150240706Y-65429014D01*
X150378599Y-65171034D01*
X150463513Y-64891111D01*
X150492185Y-64600000D01*
X150463513Y-64308889D01*
X150378599Y-64028966D01*
X150240706Y-63770986D01*
X150055134Y-63544866D01*
X149829014Y-63359294D01*
X149764477Y-63324799D01*
X149881355Y-63255178D01*
X150097588Y-63060269D01*
X150271641Y-62826920D01*
X150396825Y-62564099D01*
X150441476Y-62416890D01*
X150320155Y-62187000D01*
X149127000Y-62187000D01*
X149127000Y-62207000D01*
X148873000Y-62207000D01*
X148873000Y-62187000D01*
X146587000Y-62187000D01*
X146587000Y-62207000D01*
X146333000Y-62207000D01*
X146333000Y-62187000D01*
X145139845Y-62187000D01*
X145018524Y-62416890D01*
X145063175Y-62564099D01*
X145188359Y-62826920D01*
X145362412Y-63060269D01*
X145578645Y-63255178D01*
X145695523Y-63324799D01*
X145630986Y-63359294D01*
X145404866Y-63544866D01*
X145219294Y-63770986D01*
X145081401Y-64028966D01*
X144996487Y-64308889D01*
X144967815Y-64600000D01*
X144996487Y-64891111D01*
X145081401Y-65171034D01*
X145219294Y-65429014D01*
X145404866Y-65655134D01*
X145630986Y-65840706D01*
X145685791Y-65870000D01*
X145630986Y-65899294D01*
X145404866Y-66084866D01*
X145219294Y-66310986D01*
X145081401Y-66568966D01*
X144996487Y-66848889D01*
X144967815Y-67140000D01*
X144996487Y-67431111D01*
X145081401Y-67711034D01*
X145219294Y-67969014D01*
X145404866Y-68195134D01*
X145630986Y-68380706D01*
X145695523Y-68415201D01*
X145578645Y-68484822D01*
X145362412Y-68679731D01*
X145188359Y-68913080D01*
X145063175Y-69175901D01*
X145018524Y-69323110D01*
X145139845Y-69553000D01*
X146333000Y-69553000D01*
X146333000Y-69533000D01*
X146587000Y-69533000D01*
X146587000Y-69553000D01*
X146607000Y-69553000D01*
X146607000Y-69807000D01*
X146587000Y-69807000D01*
X146587000Y-69827000D01*
X146333000Y-69827000D01*
X146333000Y-69807000D01*
X145139845Y-69807000D01*
X145018524Y-70036890D01*
X145063175Y-70184099D01*
X145188359Y-70446920D01*
X145362412Y-70680269D01*
X145578645Y-70875178D01*
X145695523Y-70944799D01*
X145630986Y-70979294D01*
X145404866Y-71164866D01*
X145219294Y-71390986D01*
X145081401Y-71648966D01*
X144996487Y-71928889D01*
X144967815Y-72220000D01*
X144996487Y-72511111D01*
X145081401Y-72791034D01*
X145219294Y-73049014D01*
X145404866Y-73275134D01*
X145420869Y-73288268D01*
X134332655Y-84376484D01*
X134305374Y-84398873D01*
X134282986Y-84426153D01*
X134216024Y-84507746D01*
X134149631Y-84631958D01*
X134108747Y-84766736D01*
X134094942Y-84906900D01*
X134098401Y-84942020D01*
X134098400Y-115976378D01*
X134050371Y-115985932D01*
X133880211Y-116056414D01*
X133727072Y-116158738D01*
X133715810Y-116170000D01*
X132060509Y-116170000D01*
X132025399Y-116166542D01*
X131990289Y-116170000D01*
X131990280Y-116170000D01*
X131885236Y-116180346D01*
X131750458Y-116221230D01*
X131750456Y-116221231D01*
X131626244Y-116287624D01*
X131544651Y-116354586D01*
X131544648Y-116354589D01*
X131517373Y-116376973D01*
X131494988Y-116404249D01*
X128787439Y-119111800D01*
X128771511Y-119111800D01*
X128590871Y-119147732D01*
X128420711Y-119218214D01*
X128267572Y-119320538D01*
X128137338Y-119450772D01*
X128119187Y-119477937D01*
X127966250Y-119325000D01*
X128125000Y-119166250D01*
X128108302Y-119057399D01*
X128084088Y-118990597D01*
X128093469Y-118971292D01*
X128125142Y-118850285D01*
X128130000Y-118781750D01*
X127971250Y-118623000D01*
X127723111Y-118623000D01*
X127702470Y-118613342D01*
X127588619Y-118585325D01*
X127587018Y-118580044D01*
X127714762Y-118452300D01*
X127730689Y-118452300D01*
X127911329Y-118416368D01*
X128081489Y-118345886D01*
X128234628Y-118243562D01*
X128364862Y-118113328D01*
X128467186Y-117960189D01*
X128537668Y-117790029D01*
X128573600Y-117609389D01*
X128573600Y-117425211D01*
X128537668Y-117244571D01*
X128467186Y-117074411D01*
X128364862Y-116921272D01*
X128234628Y-116791038D01*
X128081489Y-116688714D01*
X127911329Y-116618232D01*
X127861400Y-116608300D01*
X127861400Y-116188290D01*
X127872662Y-116177028D01*
X127974986Y-116023889D01*
X128045468Y-115853729D01*
X128081400Y-115673089D01*
X128081400Y-115488911D01*
X128045468Y-115308271D01*
X127974986Y-115138111D01*
X127872662Y-114984972D01*
X127742428Y-114854738D01*
X127589289Y-114752414D01*
X127419129Y-114681932D01*
X127238489Y-114646000D01*
X127054311Y-114646000D01*
X126873671Y-114681932D01*
X126703511Y-114752414D01*
X126550372Y-114854738D01*
X126420138Y-114984972D01*
X126317814Y-115138111D01*
X126247332Y-115308271D01*
X126211400Y-115488911D01*
X126211400Y-115673089D01*
X126247332Y-115853729D01*
X126276443Y-115924010D01*
X126198211Y-115956414D01*
X126045072Y-116058738D01*
X125914838Y-116188972D01*
X125812514Y-116342111D01*
X125742032Y-116512271D01*
X125729504Y-116575254D01*
X125714250Y-116560000D01*
X125568179Y-116557187D01*
X125443398Y-116565896D01*
X125322714Y-116598781D01*
X125210765Y-116654578D01*
X125111852Y-116731144D01*
X125029777Y-116825535D01*
X124967694Y-116934125D01*
X124927989Y-117052739D01*
X124915000Y-117151250D01*
X125073750Y-117310000D01*
X124969364Y-117414386D01*
X124967739Y-117414709D01*
X124955686Y-117385611D01*
X124853362Y-117232472D01*
X124723128Y-117102238D01*
X124569989Y-116999914D01*
X124399829Y-116929432D01*
X124219189Y-116893500D01*
X124035011Y-116893500D01*
X123854371Y-116929432D01*
X123684211Y-116999914D01*
X123531072Y-117102238D01*
X123400838Y-117232472D01*
X123298514Y-117385611D01*
X123228032Y-117555771D01*
X123192100Y-117736411D01*
X123192100Y-117920589D01*
X123228032Y-118101229D01*
X123298514Y-118271389D01*
X123400838Y-118424528D01*
X123412101Y-118435791D01*
X123412100Y-122455090D01*
X123408642Y-122490200D01*
X123412100Y-122525310D01*
X123412100Y-122525319D01*
X123422446Y-122630363D01*
X123463330Y-122765141D01*
X123529723Y-122889353D01*
X123619073Y-122998226D01*
X123646355Y-123020616D01*
X123768607Y-123142868D01*
X123611625Y-123142868D01*
X123599206Y-123136230D01*
X123540804Y-123118514D01*
X123496028Y-123073738D01*
X123342889Y-122971414D01*
X123172729Y-122900932D01*
X122992089Y-122865000D01*
X122807911Y-122865000D01*
X122627271Y-122900932D01*
X122457111Y-122971414D01*
X122303972Y-123073738D01*
X122173738Y-123203972D01*
X122071414Y-123357111D01*
X122000932Y-123527271D01*
X121965000Y-123707911D01*
X105660000Y-123707911D01*
X105660000Y-41789721D01*
X105865000Y-41789721D01*
X105865000Y-42210279D01*
X105947047Y-42622756D01*
X106107988Y-43011302D01*
X106341637Y-43360983D01*
X106639017Y-43658363D01*
X106988698Y-43892012D01*
X107377244Y-44052953D01*
X107789721Y-44135000D01*
X108210279Y-44135000D01*
X108622756Y-44052953D01*
X109011302Y-43892012D01*
X109360983Y-43658363D01*
X109658363Y-43360983D01*
X109892012Y-43011302D01*
X110052953Y-42622756D01*
X110135000Y-42210279D01*
X110135000Y-41789721D01*
X189865000Y-41789721D01*
X189865000Y-42210279D01*
X189947047Y-42622756D01*
X190107988Y-43011302D01*
X190341637Y-43360983D01*
X190639017Y-43658363D01*
X190988698Y-43892012D01*
X191377244Y-44052953D01*
X191789721Y-44135000D01*
X192210279Y-44135000D01*
X192622756Y-44052953D01*
X193011302Y-43892012D01*
X193360983Y-43658363D01*
X193658363Y-43360983D01*
X193892012Y-43011302D01*
X194052953Y-42622756D01*
X194135000Y-42210279D01*
X194135000Y-41789721D01*
X194052953Y-41377244D01*
X193892012Y-40988698D01*
X193658363Y-40639017D01*
X193360983Y-40341637D01*
X193011302Y-40107988D01*
X192622756Y-39947047D01*
X192210279Y-39865000D01*
X191789721Y-39865000D01*
X191377244Y-39947047D01*
X190988698Y-40107988D01*
X190639017Y-40341637D01*
X190341637Y-40639017D01*
X190107988Y-40988698D01*
X189947047Y-41377244D01*
X189865000Y-41789721D01*
X110135000Y-41789721D01*
X110052953Y-41377244D01*
X109892012Y-40988698D01*
X109658363Y-40639017D01*
X109360983Y-40341637D01*
X109011302Y-40107988D01*
X108622756Y-39947047D01*
X108210279Y-39865000D01*
X107789721Y-39865000D01*
X107377244Y-39947047D01*
X106988698Y-40107988D01*
X106639017Y-40341637D01*
X106341637Y-40639017D01*
X106107988Y-40988698D01*
X105947047Y-41377244D01*
X105865000Y-41789721D01*
X105660000Y-41789721D01*
X105660000Y-39660000D01*
X194340001Y-39660000D01*
X194340000Y-138340000D01*
G36*
X136066053Y-122793709D02*
G01*
X136147542Y-122946164D01*
X136191724Y-123000000D01*
X136147542Y-123053836D01*
X136066053Y-123206291D01*
X136015872Y-123371715D01*
X135998928Y-123543750D01*
X135998928Y-124114409D01*
X132583739Y-127529600D01*
X131228461Y-127529600D01*
X136042383Y-122715680D01*
X136066053Y-122793709D01*
X136066053Y-122793709D01*
G37*
X136066053Y-122793709D02*
X136147542Y-122946164D01*
X136191724Y-123000000D01*
X136147542Y-123053836D01*
X136066053Y-123206291D01*
X136015872Y-123371715D01*
X135998928Y-123543750D01*
X135998928Y-124114409D01*
X132583739Y-127529600D01*
X131228461Y-127529600D01*
X136042383Y-122715680D01*
X136066053Y-122793709D01*
G36*
X172634284Y-123880746D02*
G01*
X172656673Y-123908027D01*
X172720204Y-123960165D01*
X172725932Y-124000000D01*
X172720000Y-124041250D01*
X172733857Y-124055107D01*
X172734188Y-124057407D01*
X172774875Y-124175689D01*
X172789042Y-124200000D01*
X172774875Y-124224311D01*
X172753999Y-124285000D01*
X165016463Y-124285000D01*
X149778935Y-109047474D01*
X149829014Y-109020706D01*
X150055134Y-108835134D01*
X150240706Y-108609014D01*
X150378599Y-108351034D01*
X150463513Y-108071111D01*
X150492185Y-107780000D01*
X150463513Y-107488889D01*
X150378599Y-107208966D01*
X150240706Y-106950986D01*
X150055134Y-106724866D01*
X149829014Y-106539294D01*
X149774209Y-106510000D01*
X149829014Y-106480706D01*
X150055134Y-106295134D01*
X150240706Y-106069014D01*
X150378599Y-105811034D01*
X150463513Y-105531111D01*
X150492185Y-105240000D01*
X150463513Y-104948889D01*
X150378599Y-104668966D01*
X150240706Y-104410986D01*
X150055134Y-104184866D01*
X149829014Y-103999294D01*
X149774209Y-103970000D01*
X149829014Y-103940706D01*
X150055134Y-103755134D01*
X150240706Y-103529014D01*
X150378599Y-103271034D01*
X150463513Y-102991111D01*
X150467311Y-102952546D01*
X150583329Y-102929468D01*
X150753489Y-102858986D01*
X150906628Y-102756662D01*
X150917890Y-102745400D01*
X151498939Y-102745400D01*
X172634284Y-123880746D01*
X172634284Y-123880746D01*
G37*
X172634284Y-123880746D02*
X172656673Y-123908027D01*
X172720204Y-123960165D01*
X172725932Y-124000000D01*
X172720000Y-124041250D01*
X172733857Y-124055107D01*
X172734188Y-124057407D01*
X172774875Y-124175689D01*
X172789042Y-124200000D01*
X172774875Y-124224311D01*
X172753999Y-124285000D01*
X165016463Y-124285000D01*
X149778935Y-109047474D01*
X149829014Y-109020706D01*
X150055134Y-108835134D01*
X150240706Y-108609014D01*
X150378599Y-108351034D01*
X150463513Y-108071111D01*
X150492185Y-107780000D01*
X150463513Y-107488889D01*
X150378599Y-107208966D01*
X150240706Y-106950986D01*
X150055134Y-106724866D01*
X149829014Y-106539294D01*
X149774209Y-106510000D01*
X149829014Y-106480706D01*
X150055134Y-106295134D01*
X150240706Y-106069014D01*
X150378599Y-105811034D01*
X150463513Y-105531111D01*
X150492185Y-105240000D01*
X150463513Y-104948889D01*
X150378599Y-104668966D01*
X150240706Y-104410986D01*
X150055134Y-104184866D01*
X149829014Y-103999294D01*
X149774209Y-103970000D01*
X149829014Y-103940706D01*
X150055134Y-103755134D01*
X150240706Y-103529014D01*
X150378599Y-103271034D01*
X150463513Y-102991111D01*
X150467311Y-102952546D01*
X150583329Y-102929468D01*
X150753489Y-102858986D01*
X150906628Y-102756662D01*
X150917890Y-102745400D01*
X151498939Y-102745400D01*
X172634284Y-123880746D01*
G36*
X171432700Y-94159562D02*
G01*
X171432701Y-118994439D01*
X153625100Y-101186839D01*
X153625100Y-84161590D01*
X153636362Y-84150328D01*
X153738686Y-83997189D01*
X153809168Y-83827029D01*
X153845100Y-83646389D01*
X153845100Y-83462211D01*
X153809168Y-83281571D01*
X153738686Y-83111411D01*
X153636362Y-82958272D01*
X153506128Y-82828038D01*
X153352989Y-82725714D01*
X153182829Y-82655232D01*
X153002189Y-82619300D01*
X152818011Y-82619300D01*
X152637371Y-82655232D01*
X152467211Y-82725714D01*
X152314072Y-82828038D01*
X152183838Y-82958272D01*
X152081514Y-83111411D01*
X152011032Y-83281571D01*
X151975100Y-83462211D01*
X151975100Y-83646389D01*
X152011032Y-83827029D01*
X152081514Y-83997189D01*
X152183838Y-84150328D01*
X152195101Y-84161591D01*
X152195100Y-101433717D01*
X152194254Y-101433023D01*
X152070042Y-101366630D01*
X151935264Y-101325746D01*
X151830220Y-101315400D01*
X151830210Y-101315400D01*
X151795100Y-101311942D01*
X151759990Y-101315400D01*
X151025600Y-101315400D01*
X151025600Y-86952309D01*
X151029058Y-86917199D01*
X151025600Y-86882089D01*
X151025600Y-86882080D01*
X151015254Y-86777036D01*
X150974370Y-86642258D01*
X150907977Y-86518046D01*
X150818627Y-86409173D01*
X150791346Y-86386784D01*
X150194672Y-85790111D01*
X150271641Y-85686920D01*
X150396825Y-85424099D01*
X150441476Y-85276890D01*
X150320155Y-85047000D01*
X149127000Y-85047000D01*
X149127000Y-85067000D01*
X148873000Y-85067000D01*
X148873000Y-85047000D01*
X148853000Y-85047000D01*
X148853000Y-84793000D01*
X148873000Y-84793000D01*
X148873000Y-84773000D01*
X149127000Y-84773000D01*
X149127000Y-84793000D01*
X150320155Y-84793000D01*
X150441476Y-84563110D01*
X150396825Y-84415901D01*
X150271641Y-84153080D01*
X150097588Y-83919731D01*
X149881355Y-83724822D01*
X149764477Y-83655201D01*
X149829014Y-83620706D01*
X150055134Y-83435134D01*
X150240706Y-83209014D01*
X150378599Y-82951034D01*
X150463513Y-82671111D01*
X150492185Y-82380000D01*
X150463513Y-82088889D01*
X150378599Y-81808966D01*
X150240706Y-81550986D01*
X150055134Y-81324866D01*
X149829014Y-81139294D01*
X149774209Y-81110000D01*
X149829014Y-81080706D01*
X150055134Y-80895134D01*
X150240706Y-80669014D01*
X150378599Y-80411034D01*
X150463513Y-80131111D01*
X150492185Y-79840000D01*
X150463513Y-79548889D01*
X150378599Y-79268966D01*
X150240706Y-79010986D01*
X150055134Y-78784866D01*
X149829014Y-78599294D01*
X149764477Y-78564799D01*
X149881355Y-78495178D01*
X150097588Y-78300269D01*
X150271641Y-78066920D01*
X150396825Y-77804099D01*
X150441476Y-77656890D01*
X150320155Y-77427000D01*
X149127000Y-77427000D01*
X149127000Y-77447000D01*
X148873000Y-77447000D01*
X148873000Y-77427000D01*
X146587000Y-77427000D01*
X146587000Y-77447000D01*
X146333000Y-77447000D01*
X146333000Y-77427000D01*
X145139845Y-77427000D01*
X145018524Y-77656890D01*
X145063175Y-77804099D01*
X145188359Y-78066920D01*
X145362412Y-78300269D01*
X145578645Y-78495178D01*
X145695523Y-78564799D01*
X145630986Y-78599294D01*
X145404866Y-78784866D01*
X145219294Y-79010986D01*
X145081401Y-79268966D01*
X144996487Y-79548889D01*
X144967815Y-79840000D01*
X144996487Y-80131111D01*
X145018950Y-80205160D01*
X144965238Y-80258872D01*
X144862914Y-80412011D01*
X144792432Y-80582171D01*
X144756500Y-80762811D01*
X144756500Y-80946989D01*
X144792432Y-81127629D01*
X144862914Y-81297789D01*
X144965238Y-81450928D01*
X145095472Y-81581162D01*
X145174824Y-81634183D01*
X145081401Y-81808966D01*
X144996487Y-82088889D01*
X144967815Y-82380000D01*
X144996487Y-82671111D01*
X145081401Y-82951034D01*
X145219294Y-83209014D01*
X145404866Y-83435134D01*
X145420870Y-83448268D01*
X142904439Y-85964700D01*
X138141490Y-85964700D01*
X138130228Y-85953438D01*
X137977089Y-85851114D01*
X137806929Y-85780632D01*
X137626289Y-85744700D01*
X137442111Y-85744700D01*
X137261471Y-85780632D01*
X137091311Y-85851114D01*
X136938172Y-85953438D01*
X136807938Y-86083672D01*
X136705614Y-86236811D01*
X136635132Y-86406971D01*
X136599200Y-86587611D01*
X136599200Y-86771789D01*
X136635132Y-86952429D01*
X136705614Y-87122589D01*
X136807938Y-87275728D01*
X136938172Y-87405962D01*
X137091311Y-87508286D01*
X137261471Y-87578768D01*
X137442111Y-87614700D01*
X137626289Y-87614700D01*
X137806929Y-87578768D01*
X137977089Y-87508286D01*
X138130228Y-87405962D01*
X138141490Y-87394700D01*
X143165490Y-87394700D01*
X143200600Y-87398158D01*
X143235710Y-87394700D01*
X143235720Y-87394700D01*
X143340764Y-87384354D01*
X143475542Y-87343470D01*
X143599754Y-87277077D01*
X143708627Y-87187727D01*
X143731020Y-87160441D01*
X145195273Y-85696189D01*
X145362412Y-85920269D01*
X145578645Y-86115178D01*
X145695523Y-86184799D01*
X145630986Y-86219294D01*
X145404866Y-86404866D01*
X145302965Y-86529033D01*
X145282689Y-86525000D01*
X145098511Y-86525000D01*
X144917871Y-86560932D01*
X144747711Y-86631414D01*
X144594572Y-86733738D01*
X144464338Y-86863972D01*
X144362014Y-87017111D01*
X144291532Y-87187271D01*
X144255600Y-87367911D01*
X144255600Y-87552089D01*
X144291532Y-87732729D01*
X144362014Y-87902889D01*
X144464338Y-88056028D01*
X144594572Y-88186262D01*
X144747711Y-88288586D01*
X144917871Y-88359068D01*
X145098511Y-88395000D01*
X145282689Y-88395000D01*
X145302965Y-88390967D01*
X145404866Y-88515134D01*
X145630986Y-88700706D01*
X145685791Y-88730000D01*
X145630986Y-88759294D01*
X145404866Y-88944866D01*
X145219294Y-89170986D01*
X145081401Y-89428966D01*
X144996487Y-89708889D01*
X144967815Y-90000000D01*
X144996487Y-90291111D01*
X145081401Y-90571034D01*
X145219294Y-90829014D01*
X145404866Y-91055134D01*
X145630986Y-91240706D01*
X145695523Y-91275201D01*
X145578645Y-91344822D01*
X145362412Y-91539731D01*
X145188359Y-91773080D01*
X145063175Y-92035901D01*
X145018524Y-92183110D01*
X145139845Y-92413000D01*
X146333000Y-92413000D01*
X146333000Y-92393000D01*
X146587000Y-92393000D01*
X146587000Y-92413000D01*
X148873000Y-92413000D01*
X148873000Y-92393000D01*
X149127000Y-92393000D01*
X149127000Y-92413000D01*
X149147000Y-92413000D01*
X149147000Y-92667000D01*
X149127000Y-92667000D01*
X149127000Y-92687000D01*
X148873000Y-92687000D01*
X148873000Y-92667000D01*
X146587000Y-92667000D01*
X146587000Y-92687000D01*
X146333000Y-92687000D01*
X146333000Y-92667000D01*
X145139845Y-92667000D01*
X145018524Y-92896890D01*
X145063175Y-93044099D01*
X145188359Y-93306920D01*
X145362412Y-93540269D01*
X145578645Y-93735178D01*
X145695523Y-93804799D01*
X145630986Y-93839294D01*
X145404866Y-94024866D01*
X145219294Y-94250986D01*
X145155092Y-94371100D01*
X145101511Y-94371100D01*
X144920871Y-94407032D01*
X144750711Y-94477514D01*
X144597572Y-94579838D01*
X144467338Y-94710072D01*
X144365014Y-94863211D01*
X144294532Y-95033371D01*
X144258600Y-95214011D01*
X144258600Y-95398189D01*
X144294532Y-95578829D01*
X144365014Y-95748989D01*
X144467338Y-95902128D01*
X144597572Y-96032362D01*
X144750711Y-96134686D01*
X144920871Y-96205168D01*
X145101511Y-96241100D01*
X145285689Y-96241100D01*
X145466329Y-96205168D01*
X145482195Y-96198596D01*
X145630986Y-96320706D01*
X145685791Y-96350000D01*
X145630986Y-96379294D01*
X145404866Y-96564866D01*
X145219294Y-96790986D01*
X145081401Y-97048966D01*
X144996487Y-97328889D01*
X144967815Y-97620000D01*
X144996487Y-97911111D01*
X145081401Y-98191034D01*
X145219294Y-98449014D01*
X145404866Y-98675134D01*
X145630986Y-98860706D01*
X145685791Y-98890000D01*
X145630986Y-98919294D01*
X145404866Y-99104866D01*
X145219294Y-99330986D01*
X145081401Y-99588966D01*
X144996487Y-99868889D01*
X144967815Y-100160000D01*
X144996487Y-100451111D01*
X145081401Y-100731034D01*
X145219294Y-100989014D01*
X145404866Y-101215134D01*
X145630986Y-101400706D01*
X145685791Y-101430000D01*
X145630986Y-101459294D01*
X145404866Y-101644866D01*
X145219294Y-101870986D01*
X145081401Y-102128966D01*
X144996487Y-102408889D01*
X144967815Y-102700000D01*
X144996487Y-102991111D01*
X145081401Y-103271034D01*
X145219294Y-103529014D01*
X145404866Y-103755134D01*
X145420870Y-103768268D01*
X137264255Y-111924884D01*
X137236974Y-111947273D01*
X137214586Y-111974553D01*
X137147624Y-112056146D01*
X137081231Y-112180358D01*
X137040347Y-112315136D01*
X137026542Y-112455300D01*
X137030001Y-112490420D01*
X137030000Y-118661928D01*
X137021348Y-118661928D01*
X136970262Y-118585472D01*
X136840028Y-118455238D01*
X136686889Y-118352914D01*
X136516729Y-118282432D01*
X136336089Y-118246500D01*
X136151911Y-118246500D01*
X135971271Y-118282432D01*
X135801111Y-118352914D01*
X135647972Y-118455238D01*
X135528400Y-118574810D01*
X135528400Y-91113778D01*
X135546611Y-91117400D01*
X135730789Y-91117400D01*
X135911429Y-91081468D01*
X136081589Y-91010986D01*
X136234728Y-90908662D01*
X136364962Y-90778428D01*
X136467286Y-90625289D01*
X136537768Y-90455129D01*
X136573700Y-90274489D01*
X136573700Y-90090311D01*
X136537768Y-89909671D01*
X136467286Y-89739511D01*
X136364962Y-89586372D01*
X136234728Y-89456138D01*
X136081589Y-89353814D01*
X135911429Y-89283332D01*
X135730789Y-89247400D01*
X135546611Y-89247400D01*
X135528400Y-89251022D01*
X135528400Y-85203061D01*
X145192527Y-75538936D01*
X145219294Y-75589014D01*
X145404866Y-75815134D01*
X145630986Y-76000706D01*
X145695523Y-76035201D01*
X145578645Y-76104822D01*
X145362412Y-76299731D01*
X145188359Y-76533080D01*
X145063175Y-76795901D01*
X145018524Y-76943110D01*
X145139845Y-77173000D01*
X146333000Y-77173000D01*
X146333000Y-77153000D01*
X146587000Y-77153000D01*
X146587000Y-77173000D01*
X148873000Y-77173000D01*
X148873000Y-77153000D01*
X149127000Y-77153000D01*
X149127000Y-77173000D01*
X150320155Y-77173000D01*
X150441476Y-76943110D01*
X150396825Y-76795901D01*
X150271641Y-76533080D01*
X150097588Y-76299731D01*
X149881355Y-76104822D01*
X149764477Y-76035201D01*
X149829014Y-76000706D01*
X150055134Y-75815134D01*
X150240706Y-75589014D01*
X150378599Y-75331034D01*
X150463513Y-75051111D01*
X150492185Y-74760000D01*
X150463513Y-74468889D01*
X150378599Y-74188966D01*
X150240706Y-73930986D01*
X150055134Y-73704866D01*
X149829014Y-73519294D01*
X149774209Y-73490000D01*
X149829014Y-73460706D01*
X150055134Y-73275134D01*
X150240706Y-73049014D01*
X150269076Y-72995937D01*
X171432700Y-94159562D01*
X171432700Y-94159562D01*
G37*
X171432700Y-94159562D02*
X171432701Y-118994439D01*
X153625100Y-101186839D01*
X153625100Y-84161590D01*
X153636362Y-84150328D01*
X153738686Y-83997189D01*
X153809168Y-83827029D01*
X153845100Y-83646389D01*
X153845100Y-83462211D01*
X153809168Y-83281571D01*
X153738686Y-83111411D01*
X153636362Y-82958272D01*
X153506128Y-82828038D01*
X153352989Y-82725714D01*
X153182829Y-82655232D01*
X153002189Y-82619300D01*
X152818011Y-82619300D01*
X152637371Y-82655232D01*
X152467211Y-82725714D01*
X152314072Y-82828038D01*
X152183838Y-82958272D01*
X152081514Y-83111411D01*
X152011032Y-83281571D01*
X151975100Y-83462211D01*
X151975100Y-83646389D01*
X152011032Y-83827029D01*
X152081514Y-83997189D01*
X152183838Y-84150328D01*
X152195101Y-84161591D01*
X152195100Y-101433717D01*
X152194254Y-101433023D01*
X152070042Y-101366630D01*
X151935264Y-101325746D01*
X151830220Y-101315400D01*
X151830210Y-101315400D01*
X151795100Y-101311942D01*
X151759990Y-101315400D01*
X151025600Y-101315400D01*
X151025600Y-86952309D01*
X151029058Y-86917199D01*
X151025600Y-86882089D01*
X151025600Y-86882080D01*
X151015254Y-86777036D01*
X150974370Y-86642258D01*
X150907977Y-86518046D01*
X150818627Y-86409173D01*
X150791346Y-86386784D01*
X150194672Y-85790111D01*
X150271641Y-85686920D01*
X150396825Y-85424099D01*
X150441476Y-85276890D01*
X150320155Y-85047000D01*
X149127000Y-85047000D01*
X149127000Y-85067000D01*
X148873000Y-85067000D01*
X148873000Y-85047000D01*
X148853000Y-85047000D01*
X148853000Y-84793000D01*
X148873000Y-84793000D01*
X148873000Y-84773000D01*
X149127000Y-84773000D01*
X149127000Y-84793000D01*
X150320155Y-84793000D01*
X150441476Y-84563110D01*
X150396825Y-84415901D01*
X150271641Y-84153080D01*
X150097588Y-83919731D01*
X149881355Y-83724822D01*
X149764477Y-83655201D01*
X149829014Y-83620706D01*
X150055134Y-83435134D01*
X150240706Y-83209014D01*
X150378599Y-82951034D01*
X150463513Y-82671111D01*
X150492185Y-82380000D01*
X150463513Y-82088889D01*
X150378599Y-81808966D01*
X150240706Y-81550986D01*
X150055134Y-81324866D01*
X149829014Y-81139294D01*
X149774209Y-81110000D01*
X149829014Y-81080706D01*
X150055134Y-80895134D01*
X150240706Y-80669014D01*
X150378599Y-80411034D01*
X150463513Y-80131111D01*
X150492185Y-79840000D01*
X150463513Y-79548889D01*
X150378599Y-79268966D01*
X150240706Y-79010986D01*
X150055134Y-78784866D01*
X149829014Y-78599294D01*
X149764477Y-78564799D01*
X149881355Y-78495178D01*
X150097588Y-78300269D01*
X150271641Y-78066920D01*
X150396825Y-77804099D01*
X150441476Y-77656890D01*
X150320155Y-77427000D01*
X149127000Y-77427000D01*
X149127000Y-77447000D01*
X148873000Y-77447000D01*
X148873000Y-77427000D01*
X146587000Y-77427000D01*
X146587000Y-77447000D01*
X146333000Y-77447000D01*
X146333000Y-77427000D01*
X145139845Y-77427000D01*
X145018524Y-77656890D01*
X145063175Y-77804099D01*
X145188359Y-78066920D01*
X145362412Y-78300269D01*
X145578645Y-78495178D01*
X145695523Y-78564799D01*
X145630986Y-78599294D01*
X145404866Y-78784866D01*
X145219294Y-79010986D01*
X145081401Y-79268966D01*
X144996487Y-79548889D01*
X144967815Y-79840000D01*
X144996487Y-80131111D01*
X145018950Y-80205160D01*
X144965238Y-80258872D01*
X144862914Y-80412011D01*
X144792432Y-80582171D01*
X144756500Y-80762811D01*
X144756500Y-80946989D01*
X144792432Y-81127629D01*
X144862914Y-81297789D01*
X144965238Y-81450928D01*
X145095472Y-81581162D01*
X145174824Y-81634183D01*
X145081401Y-81808966D01*
X144996487Y-82088889D01*
X144967815Y-82380000D01*
X144996487Y-82671111D01*
X145081401Y-82951034D01*
X145219294Y-83209014D01*
X145404866Y-83435134D01*
X145420870Y-83448268D01*
X142904439Y-85964700D01*
X138141490Y-85964700D01*
X138130228Y-85953438D01*
X137977089Y-85851114D01*
X137806929Y-85780632D01*
X137626289Y-85744700D01*
X137442111Y-85744700D01*
X137261471Y-85780632D01*
X137091311Y-85851114D01*
X136938172Y-85953438D01*
X136807938Y-86083672D01*
X136705614Y-86236811D01*
X136635132Y-86406971D01*
X136599200Y-86587611D01*
X136599200Y-86771789D01*
X136635132Y-86952429D01*
X136705614Y-87122589D01*
X136807938Y-87275728D01*
X136938172Y-87405962D01*
X137091311Y-87508286D01*
X137261471Y-87578768D01*
X137442111Y-87614700D01*
X137626289Y-87614700D01*
X137806929Y-87578768D01*
X137977089Y-87508286D01*
X138130228Y-87405962D01*
X138141490Y-87394700D01*
X143165490Y-87394700D01*
X143200600Y-87398158D01*
X143235710Y-87394700D01*
X143235720Y-87394700D01*
X143340764Y-87384354D01*
X143475542Y-87343470D01*
X143599754Y-87277077D01*
X143708627Y-87187727D01*
X143731020Y-87160441D01*
X145195273Y-85696189D01*
X145362412Y-85920269D01*
X145578645Y-86115178D01*
X145695523Y-86184799D01*
X145630986Y-86219294D01*
X145404866Y-86404866D01*
X145302965Y-86529033D01*
X145282689Y-86525000D01*
X145098511Y-86525000D01*
X144917871Y-86560932D01*
X144747711Y-86631414D01*
X144594572Y-86733738D01*
X144464338Y-86863972D01*
X144362014Y-87017111D01*
X144291532Y-87187271D01*
X144255600Y-87367911D01*
X144255600Y-87552089D01*
X144291532Y-87732729D01*
X144362014Y-87902889D01*
X144464338Y-88056028D01*
X144594572Y-88186262D01*
X144747711Y-88288586D01*
X144917871Y-88359068D01*
X145098511Y-88395000D01*
X145282689Y-88395000D01*
X145302965Y-88390967D01*
X145404866Y-88515134D01*
X145630986Y-88700706D01*
X145685791Y-88730000D01*
X145630986Y-88759294D01*
X145404866Y-88944866D01*
X145219294Y-89170986D01*
X145081401Y-89428966D01*
X144996487Y-89708889D01*
X144967815Y-90000000D01*
X144996487Y-90291111D01*
X145081401Y-90571034D01*
X145219294Y-90829014D01*
X145404866Y-91055134D01*
X145630986Y-91240706D01*
X145695523Y-91275201D01*
X145578645Y-91344822D01*
X145362412Y-91539731D01*
X145188359Y-91773080D01*
X145063175Y-92035901D01*
X145018524Y-92183110D01*
X145139845Y-92413000D01*
X146333000Y-92413000D01*
X146333000Y-92393000D01*
X146587000Y-92393000D01*
X146587000Y-92413000D01*
X148873000Y-92413000D01*
X148873000Y-92393000D01*
X149127000Y-92393000D01*
X149127000Y-92413000D01*
X149147000Y-92413000D01*
X149147000Y-92667000D01*
X149127000Y-92667000D01*
X149127000Y-92687000D01*
X148873000Y-92687000D01*
X148873000Y-92667000D01*
X146587000Y-92667000D01*
X146587000Y-92687000D01*
X146333000Y-92687000D01*
X146333000Y-92667000D01*
X145139845Y-92667000D01*
X145018524Y-92896890D01*
X145063175Y-93044099D01*
X145188359Y-93306920D01*
X145362412Y-93540269D01*
X145578645Y-93735178D01*
X145695523Y-93804799D01*
X145630986Y-93839294D01*
X145404866Y-94024866D01*
X145219294Y-94250986D01*
X145155092Y-94371100D01*
X145101511Y-94371100D01*
X144920871Y-94407032D01*
X144750711Y-94477514D01*
X144597572Y-94579838D01*
X144467338Y-94710072D01*
X144365014Y-94863211D01*
X144294532Y-95033371D01*
X144258600Y-95214011D01*
X144258600Y-95398189D01*
X144294532Y-95578829D01*
X144365014Y-95748989D01*
X144467338Y-95902128D01*
X144597572Y-96032362D01*
X144750711Y-96134686D01*
X144920871Y-96205168D01*
X145101511Y-96241100D01*
X145285689Y-96241100D01*
X145466329Y-96205168D01*
X145482195Y-96198596D01*
X145630986Y-96320706D01*
X145685791Y-96350000D01*
X145630986Y-96379294D01*
X145404866Y-96564866D01*
X145219294Y-96790986D01*
X145081401Y-97048966D01*
X144996487Y-97328889D01*
X144967815Y-97620000D01*
X144996487Y-97911111D01*
X145081401Y-98191034D01*
X145219294Y-98449014D01*
X145404866Y-98675134D01*
X145630986Y-98860706D01*
X145685791Y-98890000D01*
X145630986Y-98919294D01*
X145404866Y-99104866D01*
X145219294Y-99330986D01*
X145081401Y-99588966D01*
X144996487Y-99868889D01*
X144967815Y-100160000D01*
X144996487Y-100451111D01*
X145081401Y-100731034D01*
X145219294Y-100989014D01*
X145404866Y-101215134D01*
X145630986Y-101400706D01*
X145685791Y-101430000D01*
X145630986Y-101459294D01*
X145404866Y-101644866D01*
X145219294Y-101870986D01*
X145081401Y-102128966D01*
X144996487Y-102408889D01*
X144967815Y-102700000D01*
X144996487Y-102991111D01*
X145081401Y-103271034D01*
X145219294Y-103529014D01*
X145404866Y-103755134D01*
X145420870Y-103768268D01*
X137264255Y-111924884D01*
X137236974Y-111947273D01*
X137214586Y-111974553D01*
X137147624Y-112056146D01*
X137081231Y-112180358D01*
X137040347Y-112315136D01*
X137026542Y-112455300D01*
X137030001Y-112490420D01*
X137030000Y-118661928D01*
X137021348Y-118661928D01*
X136970262Y-118585472D01*
X136840028Y-118455238D01*
X136686889Y-118352914D01*
X136516729Y-118282432D01*
X136336089Y-118246500D01*
X136151911Y-118246500D01*
X135971271Y-118282432D01*
X135801111Y-118352914D01*
X135647972Y-118455238D01*
X135528400Y-118574810D01*
X135528400Y-91113778D01*
X135546611Y-91117400D01*
X135730789Y-91117400D01*
X135911429Y-91081468D01*
X136081589Y-91010986D01*
X136234728Y-90908662D01*
X136364962Y-90778428D01*
X136467286Y-90625289D01*
X136537768Y-90455129D01*
X136573700Y-90274489D01*
X136573700Y-90090311D01*
X136537768Y-89909671D01*
X136467286Y-89739511D01*
X136364962Y-89586372D01*
X136234728Y-89456138D01*
X136081589Y-89353814D01*
X135911429Y-89283332D01*
X135730789Y-89247400D01*
X135546611Y-89247400D01*
X135528400Y-89251022D01*
X135528400Y-85203061D01*
X145192527Y-75538936D01*
X145219294Y-75589014D01*
X145404866Y-75815134D01*
X145630986Y-76000706D01*
X145695523Y-76035201D01*
X145578645Y-76104822D01*
X145362412Y-76299731D01*
X145188359Y-76533080D01*
X145063175Y-76795901D01*
X145018524Y-76943110D01*
X145139845Y-77173000D01*
X146333000Y-77173000D01*
X146333000Y-77153000D01*
X146587000Y-77153000D01*
X146587000Y-77173000D01*
X148873000Y-77173000D01*
X148873000Y-77153000D01*
X149127000Y-77153000D01*
X149127000Y-77173000D01*
X150320155Y-77173000D01*
X150441476Y-76943110D01*
X150396825Y-76795901D01*
X150271641Y-76533080D01*
X150097588Y-76299731D01*
X149881355Y-76104822D01*
X149764477Y-76035201D01*
X149829014Y-76000706D01*
X150055134Y-75815134D01*
X150240706Y-75589014D01*
X150378599Y-75331034D01*
X150463513Y-75051111D01*
X150492185Y-74760000D01*
X150463513Y-74468889D01*
X150378599Y-74188966D01*
X150240706Y-73930986D01*
X150055134Y-73704866D01*
X149829014Y-73519294D01*
X149774209Y-73490000D01*
X149829014Y-73460706D01*
X150055134Y-73275134D01*
X150240706Y-73049014D01*
X150269076Y-72995937D01*
X171432700Y-94159562D01*
G36*
X176120301Y-83589264D02*
G01*
X176120300Y-116980110D01*
X176109038Y-116991372D01*
X176006714Y-117144511D01*
X175936232Y-117314671D01*
X175920520Y-117393658D01*
X175897178Y-117401336D01*
X175788265Y-117462849D01*
X175693445Y-117544429D01*
X175616363Y-117642939D01*
X175559980Y-117754595D01*
X175526463Y-117875104D01*
X175517101Y-117999838D01*
X175520000Y-118064250D01*
X175678750Y-118223000D01*
X176120301Y-118223000D01*
X176120301Y-118251928D01*
X175955000Y-118251928D01*
X175830518Y-118264188D01*
X175710820Y-118300498D01*
X175600506Y-118359463D01*
X175503815Y-118438815D01*
X175424463Y-118535506D01*
X175365498Y-118645820D01*
X175353613Y-118685000D01*
X174764194Y-118685000D01*
X174743326Y-118659573D01*
X174716045Y-118637184D01*
X174598121Y-118519260D01*
X174575727Y-118491973D01*
X174466854Y-118402623D01*
X174424498Y-118379983D01*
X174399494Y-118359463D01*
X174289180Y-118300498D01*
X174169482Y-118264188D01*
X174045000Y-118251928D01*
X173879700Y-118251928D01*
X173879700Y-118223000D01*
X174321250Y-118223000D01*
X174480000Y-118064250D01*
X174482899Y-117999838D01*
X174473537Y-117875104D01*
X174440020Y-117754595D01*
X174383637Y-117642939D01*
X174306555Y-117544429D01*
X174211735Y-117462849D01*
X174102822Y-117401336D01*
X174056382Y-117386061D01*
X174063768Y-117368229D01*
X174099700Y-117187589D01*
X174099700Y-117003411D01*
X174063768Y-116822771D01*
X173993286Y-116652611D01*
X173890962Y-116499472D01*
X173760728Y-116369238D01*
X173607589Y-116266914D01*
X173437429Y-116196432D01*
X173256789Y-116160500D01*
X173228800Y-116160500D01*
X173228800Y-81573910D01*
X173232258Y-81538800D01*
X173228800Y-81503690D01*
X173228800Y-81503680D01*
X173218454Y-81398636D01*
X173177570Y-81263858D01*
X173111177Y-81139646D01*
X173062806Y-81080706D01*
X173044215Y-81058052D01*
X173044207Y-81058044D01*
X173021826Y-81030773D01*
X172994556Y-81008393D01*
X150036548Y-58050387D01*
X150055134Y-58035134D01*
X150240706Y-57809014D01*
X150275311Y-57744272D01*
X176120301Y-83589264D01*
X176120301Y-83589264D01*
G37*
X176120301Y-83589264D02*
X176120300Y-116980110D01*
X176109038Y-116991372D01*
X176006714Y-117144511D01*
X175936232Y-117314671D01*
X175920520Y-117393658D01*
X175897178Y-117401336D01*
X175788265Y-117462849D01*
X175693445Y-117544429D01*
X175616363Y-117642939D01*
X175559980Y-117754595D01*
X175526463Y-117875104D01*
X175517101Y-117999838D01*
X175520000Y-118064250D01*
X175678750Y-118223000D01*
X176120301Y-118223000D01*
X176120301Y-118251928D01*
X175955000Y-118251928D01*
X175830518Y-118264188D01*
X175710820Y-118300498D01*
X175600506Y-118359463D01*
X175503815Y-118438815D01*
X175424463Y-118535506D01*
X175365498Y-118645820D01*
X175353613Y-118685000D01*
X174764194Y-118685000D01*
X174743326Y-118659573D01*
X174716045Y-118637184D01*
X174598121Y-118519260D01*
X174575727Y-118491973D01*
X174466854Y-118402623D01*
X174424498Y-118379983D01*
X174399494Y-118359463D01*
X174289180Y-118300498D01*
X174169482Y-118264188D01*
X174045000Y-118251928D01*
X173879700Y-118251928D01*
X173879700Y-118223000D01*
X174321250Y-118223000D01*
X174480000Y-118064250D01*
X174482899Y-117999838D01*
X174473537Y-117875104D01*
X174440020Y-117754595D01*
X174383637Y-117642939D01*
X174306555Y-117544429D01*
X174211735Y-117462849D01*
X174102822Y-117401336D01*
X174056382Y-117386061D01*
X174063768Y-117368229D01*
X174099700Y-117187589D01*
X174099700Y-117003411D01*
X174063768Y-116822771D01*
X173993286Y-116652611D01*
X173890962Y-116499472D01*
X173760728Y-116369238D01*
X173607589Y-116266914D01*
X173437429Y-116196432D01*
X173256789Y-116160500D01*
X173228800Y-116160500D01*
X173228800Y-81573910D01*
X173232258Y-81538800D01*
X173228800Y-81503690D01*
X173228800Y-81503680D01*
X173218454Y-81398636D01*
X173177570Y-81263858D01*
X173111177Y-81139646D01*
X173062806Y-81080706D01*
X173044215Y-81058052D01*
X173044207Y-81058044D01*
X173021826Y-81030773D01*
X172994556Y-81008393D01*
X150036548Y-58050387D01*
X150055134Y-58035134D01*
X150240706Y-57809014D01*
X150275311Y-57744272D01*
X176120301Y-83589264D01*
G36*
X146587000Y-84793000D02*
G01*
X146607000Y-84793000D01*
X146607000Y-85047000D01*
X146587000Y-85047000D01*
X146587000Y-85067000D01*
X146333000Y-85067000D01*
X146333000Y-85047000D01*
X146313000Y-85047000D01*
X146313000Y-84793000D01*
X146333000Y-84793000D01*
X146333000Y-84773000D01*
X146587000Y-84773000D01*
X146587000Y-84793000D01*
X146587000Y-84793000D01*
G37*
X146587000Y-84793000D02*
X146607000Y-84793000D01*
X146607000Y-85047000D01*
X146587000Y-85047000D01*
X146587000Y-85067000D01*
X146333000Y-85067000D01*
X146333000Y-85047000D01*
X146313000Y-85047000D01*
X146313000Y-84793000D01*
X146333000Y-84793000D01*
X146333000Y-84773000D01*
X146587000Y-84773000D01*
X146587000Y-84793000D01*
M02*
